<svg width="73" height="21" viewBox="0 0 73 21" fill="none" xmlns="http://www.w3.org/2000/svg">
<path d="M11.9109 6.06924H9.74689L6.62109 13.7441H8.58028L9.08789 12.4382H12.0445L11.5102 11.0061H9.55988L10.8244 7.70361L13.0775 13.7441H15.0367L11.9109 6.06924ZM44.7986 13.7441V6.06924H46.5351V12.3034H49.9637V13.7441H44.7986ZM54.8172 13.7441V6.06924H56.5626V12.3034H59.9912V13.7441H54.8172ZM35.1629 7.44245C36.6056 7.44245 37.7722 8.54607 37.7722 9.91086C37.7722 11.2756 36.6056 12.3793 35.1629 12.3793C33.7202 12.3793 32.5536 11.2756 32.5536 9.91086C32.5536 8.54607 33.7292 7.44245 35.1629 7.44245ZM35.1629 5.94287C32.8475 5.94287 30.9685 7.72046 30.9685 9.91086C30.9685 12.1013 32.8475 13.8788 35.1629 13.8788C37.4783 13.8788 39.3574 12.1013 39.3574 9.91086C39.3574 7.72046 37.4783 5.94287 35.1629 5.94287ZM67.9883 7.44245C69.4309 7.44245 70.5975 8.54607 70.5975 9.91086C70.5975 11.2756 69.4309 12.3793 67.9883 12.3793C66.5456 12.3793 65.379 11.2756 65.379 9.91086C65.379 8.54607 66.5456 7.44245 67.9883 7.44245ZM67.9883 5.94287C65.6728 5.94287 63.7938 7.72046 63.7938 9.91086C63.7938 12.1013 65.6728 13.8788 67.9883 13.8788C70.3037 13.8788 72.1827 12.1013 72.1827 9.91086C72.1827 7.72046 70.3037 5.94287 67.9883 5.94287ZM23.8798 6.06924H20.095V13.7441H21.8226V11.0987H23.8798C25.3224 11.0987 26.4891 9.94456 26.4891 8.57977C26.4891 7.22341 25.3224 6.06924 23.8798 6.06924ZM23.8798 9.59915H21.8226V7.56882H23.8798C24.4408 7.56882 24.9039 8.04902 24.9039 8.57977C24.9039 9.11052 24.4408 9.59915 23.8798 9.59915Z" fill="#333333"/>
<path d="M18.6023 16.0697C18.4509 16.0697 18.3173 16.1371 18.2372 16.2466C18.2372 16.2466 17.8454 16.6678 17.6405 16.87C16.75 17.7125 15.717 18.3696 14.5682 18.8329C13.3748 19.3131 12.1103 19.549 10.8012 19.549C9.49209 19.549 8.22752 19.3047 7.0342 18.8329C5.8854 18.3696 4.84347 17.7125 3.96183 16.87C3.07129 16.0275 2.37667 15.0503 1.88687 13.9635C1.37927 12.8346 1.12991 11.6383 1.12991 10.3999C1.12991 9.16149 1.38817 7.96519 1.88687 6.8363C2.36777 5.74952 3.06239 4.76385 3.95293 3.92981C4.84347 3.08735 5.8765 2.43023 7.02529 1.96688C8.21862 1.48668 9.48319 1.25079 10.7923 1.25079C12.1014 1.25079 13.3659 1.4951 14.5593 1.96688C15.3964 2.30386 16.1711 2.74194 16.8747 3.28112C16.8391 3.38221 16.8123 3.50016 16.8123 3.6181C16.8123 4.19097 17.3021 4.65433 17.9077 4.65433C18.5133 4.65433 19.0031 4.19097 19.0031 3.6181C19.0031 3.04523 18.5133 2.58187 17.9077 2.58187C17.7563 2.58187 17.6138 2.60715 17.4891 2.66612C15.6635 1.25079 13.3392 0.399902 10.7923 0.399902C4.95924 0.399902 0.230469 4.87337 0.230469 10.3999C0.230469 15.9264 4.95924 20.3999 10.8012 20.3999C14.0695 20.3999 16.9815 19.0014 18.9229 16.7942C19.0031 16.7184 19.0565 16.6088 19.0565 16.4993C19.0476 16.2634 18.8428 16.0697 18.6023 16.0697Z" fill="#333333"/>
</svg>
