<svg width="7" height="7" viewBox="0 0 7 7" fill="none" xmlns="http://www.w3.org/2000/svg">
<path fill-rule="evenodd" clip-rule="evenodd" d="M3.66854 0.568446C3.8516 0.385388 4.1484 0.385388 4.33146 0.568446L6.69887 2.93586C6.95516 3.19215 6.95515 3.60766 6.69887 3.86394L4.33146 6.23136C4.1484 6.41442 3.8516 6.41442 3.66854 6.23136C3.48549 6.0483 3.48549 5.7515 3.66854 5.56845L5.83709 3.3999L3.66854 1.23136C3.48549 1.0483 3.48549 0.751504 3.66854 0.568446Z" fill="#FCBF10"/>
<path fill-rule="evenodd" clip-rule="evenodd" d="M0.40625 3.3999C0.40625 3.14102 0.616116 2.93115 0.875 2.93115H5.875C6.13388 2.93115 6.34375 3.14102 6.34375 3.3999C6.34375 3.65879 6.13388 3.86865 5.875 3.86865H0.875C0.616116 3.86865 0.40625 3.65879 0.40625 3.3999Z" fill="#FCBF10"/>
</svg>
