<svg width="21" height="15" viewBox="0 0 21 15" fill="none" xmlns="http://www.w3.org/2000/svg">
<path fill-rule="evenodd" clip-rule="evenodd" d="M0.75 1.3999C0.75 0.985689 1.08579 0.649902 1.5 0.649902H6C6.99456 0.649902 7.94839 1.04499 8.65165 1.74825C9.35491 2.45151 9.75 3.40534 9.75 4.3999C9.75 5.39446 9.35491 6.34829 8.65165 7.05155C8.52544 7.17776 8.39116 7.29405 8.25003 7.3999C8.39116 7.50576 8.52544 7.62204 8.65165 7.74825C9.35491 8.45151 9.75 9.40534 9.75 10.3999C9.75 11.3945 9.35491 12.3483 8.65165 13.0516C7.94839 13.7548 6.99456 14.1499 6 14.1499H1.5C1.08579 14.1499 0.75 13.8141 0.75 13.3999V1.3999ZM2.25 8.1499V12.6499H6C6.59674 12.6499 7.16903 12.4128 7.59099 11.9909C8.01295 11.5689 8.25 10.9966 8.25 10.3999C8.25 9.80316 8.01295 9.23087 7.59099 8.80891C7.16903 8.38696 6.59674 8.1499 6 8.1499H2.25ZM6 6.6499C6.59674 6.6499 7.16903 6.41285 7.59099 5.99089C8.01295 5.56894 8.25 4.99664 8.25 4.3999C8.25 3.80316 8.01295 3.23087 7.59099 2.80891C7.16903 2.38696 6.59674 2.1499 6 2.1499H2.25V6.6499H6ZM13.75 1.3999C13.75 0.985689 14.0858 0.649902 14.5 0.649902H17.5C17.9142 0.649902 18.25 0.985689 18.25 1.3999C18.25 1.81412 17.9142 2.1499 17.5 2.1499H14.5C14.0858 2.1499 13.75 1.81412 13.75 1.3999ZM12.9948 5.3947C13.7918 4.59767 14.8728 4.1499 16 4.1499C17.1272 4.1499 18.2082 4.59767 19.0052 5.3947C19.8022 6.19173 20.25 7.27273 20.25 8.3999C20.25 8.81412 19.9142 9.1499 19.5 9.1499H13.25V10.3454C13.3388 10.9154 13.6046 11.4435 14.0105 11.8545C14.4278 12.277 14.9705 12.5531 15.5577 12.6415C16.1449 12.73 16.7449 12.626 17.2681 12.3451C17.7912 12.0642 18.2094 11.6215 18.4601 11.0833C18.635 10.7078 19.0812 10.5451 19.4567 10.72C19.8321 10.8949 19.9948 11.3411 19.8199 11.7166C19.4324 12.5484 18.7861 13.2326 17.9776 13.6666C17.1691 14.1007 16.2418 14.2615 15.3343 14.1248C14.4269 13.9881 13.588 13.5614 12.9432 12.9085C12.2984 12.2555 11.8823 11.4114 11.757 10.5023C11.7523 10.4683 11.75 10.4341 11.75 10.3999V8.3999C11.75 7.27273 12.1978 6.19173 12.9948 5.3947ZM13.3542 7.6499H18.6458C18.5189 7.20235 18.2793 6.79014 17.9445 6.45536C17.4288 5.93963 16.7293 5.6499 16 5.6499C15.2707 5.6499 14.5712 5.93963 14.0555 6.45536C13.7207 6.79014 13.4811 7.20235 13.3542 7.6499Z" fill="#191E26"/>
</svg>
