<svg width="25" height="25" viewBox="0 0 25 25" fill="none" xmlns="http://www.w3.org/2000/svg">
<path fill-rule="evenodd" clip-rule="evenodd" d="M8.76884 3.39208C9.95176 2.90209 11.2196 2.6499 12.5 2.6499C13.7804 2.6499 15.0482 2.90209 16.2312 3.39208C17.4141 3.88206 18.4889 4.60024 19.3943 5.50561C20.2997 6.41098 21.0178 7.48581 21.5078 8.66874C21.9978 9.85166 22.25 11.1195 22.25 12.3999C22.25 13.6803 21.9978 14.9481 21.5078 16.1311C21.0178 17.314 20.2997 18.3888 19.3943 19.2942C18.8114 19.8771 18.1583 20.3823 17.4514 20.7991C17.4027 20.8359 17.3492 20.8669 17.2919 20.8911C16.9498 21.0842 16.5956 21.2568 16.2312 21.4077C15.0482 21.8977 13.7804 22.1499 12.5 22.1499C11.2196 22.1499 9.95176 21.8977 8.76884 21.4077C7.58591 20.9177 6.51108 20.1996 5.60571 19.2942C4.70034 18.3888 3.98216 17.314 3.49217 16.1311C3.00219 14.9481 2.75 13.6803 2.75 12.3999C2.75 11.1195 3.00219 9.85166 3.49217 8.66874C3.98216 7.48581 4.70034 6.41098 5.60571 5.50561C6.51108 4.60024 7.58591 3.88206 8.76884 3.39208ZM17.6101 18.8767C17.8632 18.6771 18.1048 18.4624 18.3336 18.2335C19.0997 17.4674 19.7074 16.558 20.122 15.557C20.3632 14.9748 20.5363 14.3682 20.6389 13.7494C19.0434 13.7667 17.688 13.9027 16.5136 14.1334C17.0399 15.6699 17.3941 17.2296 17.6101 18.8767ZM15.0512 14.4945C15.6475 16.2009 16.0116 17.9245 16.2053 19.771C16.0259 19.8612 15.8431 19.9449 15.6571 20.0219C14.6562 20.4365 13.5834 20.6499 12.5 20.6499C11.4166 20.6499 10.3438 20.4365 9.34286 20.0219C8.88266 19.8313 8.44179 19.5998 8.0253 19.331C9.54051 17.8055 10.855 16.4913 12.6364 15.5063C13.3465 15.1137 14.1375 14.7707 15.0512 14.4945ZM15.9748 12.7124C17.3413 12.4239 18.9091 12.2614 20.7486 12.2484C20.7297 11.2166 20.5173 10.197 20.122 9.24276C19.8094 8.48807 19.387 7.78537 18.8697 7.15692C17.4021 8.3289 15.9782 9.2133 14.5854 9.88011C15.1229 10.8329 15.5834 11.772 15.9748 12.7124ZM13.2001 10.4779C13.7051 11.3616 14.1381 12.2285 14.5071 13.0924C13.5453 13.3911 12.6912 13.762 11.9105 14.1936C9.90936 15.3002 8.43149 16.7905 6.91305 18.3217C6.88755 18.3474 6.86204 18.3731 6.83651 18.3988C6.77905 18.3446 6.72232 18.2895 6.66637 18.2335C5.90029 17.4674 5.29259 16.558 4.87799 15.557C4.46339 14.5561 4.25 13.4833 4.25 12.3999C4.25 12.2321 4.25512 12.0645 4.26532 11.8973C7.20169 11.8732 10.1336 11.6598 13.2001 10.4779ZM13.8136 8.58608C15.1123 7.97654 16.4378 7.16468 17.8082 6.08441C17.1633 5.54236 16.4381 5.10136 15.6571 4.7779C14.6562 4.3633 13.5834 4.1499 12.5 4.1499C11.9092 4.1499 11.3216 4.21335 10.7471 4.33827C11.9432 5.82234 12.958 7.22439 13.8136 8.58608ZM9.21507 4.83209C10.4752 6.36582 11.5306 7.79649 12.4098 9.17273C9.74042 10.1546 7.15804 10.363 4.49733 10.395C4.59554 10.003 4.72264 9.61781 4.87799 9.24276C5.29259 8.24183 5.90029 7.33235 6.66637 6.56627C7.39972 5.83292 8.26447 5.24471 9.21507 4.83209Z" fill="#191E26"/>
</svg>
