<svg width="123" height="101" viewBox="0 0 123 101" fill="none" xmlns="http://www.w3.org/2000/svg">
<g clip-path="url(#clip0_3645_261)">
<path d="M79.2752 77.8313C78.9693 75.2223 76.6075 73.3546 73.9973 73.6607L72.0235 73.892L67.3242 78.7281C63.6065 82.5542 58.2354 84.2787 53.0622 83.4594C52.8593 83.4272 52.657 83.3896 52.455 83.3497C53.742 83.7821 55.0699 84.1084 56.4289 84.3237C58.7652 84.6937 61.1918 84.7396 63.6514 84.4512L75.1049 83.109C77.7136 82.8033 79.581 80.4404 79.2752 77.8313Z" fill="url(#paint0_linear_3645_261)"/>
<path d="M79.2752 77.8313C78.9693 75.2223 76.6075 73.3546 73.9973 73.6607L72.0235 73.892L67.3242 78.7281C63.6065 82.5542 58.2354 84.2787 53.0622 83.4594C52.8593 83.4272 52.657 83.3896 52.455 83.3497C53.742 83.7821 55.0699 84.1084 56.4289 84.3237C58.7652 84.6937 61.1918 84.7396 63.6514 84.4512L75.1049 83.109C77.7136 82.8033 79.581 80.4404 79.2752 77.8313Z" fill="url(#paint1_linear_3645_261)"/>
<path d="M53.107 85.6619C52.1939 85.508 51.2889 85.2749 50.4003 84.9598C47.9242 84.0821 46.6285 81.3632 47.5064 78.8873C48.3841 76.4115 51.1035 75.1152 53.5787 75.9933C56.0425 76.8665 58.8204 76.2312 60.6598 74.3762L68.2847 66.6845C70.1344 64.8189 73.1459 64.806 75.0114 66.6553C76.8769 68.5047 76.89 71.5163 75.0406 73.382L67.4157 81.0737C63.6597 84.8623 58.2716 86.533 53.107 85.6619Z" fill="url(#paint2_linear_3645_261)"/>
<path d="M68.4747 67.5362L64.7765 70.2231L60.6596 74.376C59.4893 75.5563 57.939 76.2403 56.3316 76.3587L47.7366 82.6033C48.2674 83.6652 49.193 84.5315 50.4003 84.9596C51.289 85.2745 52.1941 85.5076 53.107 85.6618C58.2716 86.5328 63.6597 84.862 67.4155 81.0733L73.7025 74.7314L68.4747 67.5362Z" fill="url(#paint3_linear_3645_261)"/>
<path d="M68.4747 67.5362L64.7765 70.2231L60.6596 74.376C59.4893 75.5563 57.939 76.2403 56.3316 76.3587L47.7366 82.6033C48.2674 83.6652 49.193 84.5315 50.4003 84.9596C51.289 85.2745 52.1941 85.5076 53.107 85.6618C58.2716 86.5328 63.6597 84.862 67.4155 81.0733L73.7025 74.7314L68.4747 67.5362Z" fill="url(#paint4_linear_3645_261)"/>
<path d="M44.1857 85.9468C44.0751 85.915 43.9655 85.8822 43.8554 85.848L35.3885 83.2156C32.8799 82.4358 31.4786 79.7699 32.2586 77.2614C33.0281 74.7862 35.6344 73.3889 38.1132 74.1019C38.1464 74.1115 38.1794 74.1213 38.2127 74.1317L46.6797 76.7639C49.1685 77.5376 51.9265 76.7963 53.6919 74.8702L61.0092 66.8855C62.7841 64.9489 65.7926 64.8173 67.7298 66.5925C69.6663 68.3673 69.7976 71.3762 68.023 73.3129L60.7054 81.2977C56.5419 85.8406 50.0914 87.6452 44.1857 85.9468Z" fill="url(#paint5_linear_3645_261)"/>
<path d="M61.1079 68.7729L55.6425 72.7438L53.6938 74.8702C52.6627 75.9951 51.2921 76.7123 49.8351 76.9631L39.4794 84.487L43.8572 85.848C43.9674 85.8824 44.077 85.9152 44.1875 85.9468C50.0933 87.6452 56.5436 85.8405 60.7073 81.2977L66.0065 75.5152L61.1079 68.7729Z" fill="url(#paint6_linear_3645_261)"/>
<path d="M61.1079 68.7729L55.6425 72.7438L53.6938 74.8702C52.6627 75.9951 51.2921 76.7123 49.8351 76.9631L39.4794 84.487L43.8572 85.848C43.9674 85.8824 44.077 85.9152 44.1875 85.9468C50.0933 87.6452 56.5436 85.8405 60.7073 81.2977L66.0065 75.5152L61.1079 68.7729Z" fill="url(#paint7_linear_3645_261)"/>
<path d="M60.5487 68.0159C58.8073 66.0513 55.8008 65.8704 53.8337 67.6136L50.4475 70.6152C48.5121 69.1722 46.863 67.3678 45.5257 65.2168L45.0852 64.5114C48.0188 63.3002 50.8832 61.9323 53.6654 60.406C56.3235 58.9478 57.2414 55.5722 55.7053 52.9595C55.5284 52.6574 55.326 52.3815 55.1047 52.1302C53.5651 50.3773 51.0212 49.7905 48.8229 50.7907C44.4629 52.7778 39.7243 53.8444 34.9114 53.9062C34.0961 53.9182 33.2798 53.8426 32.4775 53.7048C29.7285 53.2372 22.7292 52.0901 20.378 52.15C20.3564 52.151 20.0424 52.161 19.9082 52.1697C17.0182 52.3348 14.2786 53.5233 12.1048 55.4371L8.20618 58.8628L4.50619 82.2236L8.09319 82.7917C12.0754 83.4224 16.1445 83.2299 20.0493 82.2261C21.7449 81.7369 23.5628 81.7061 25.3189 82.1725C25.3189 82.1725 37.3443 85.601 38.6492 85.8077C43.3993 86.5601 48.3562 85.1834 52.0414 81.9165L60.1443 74.7305C62.111 72.9894 62.2919 69.9829 60.5487 68.0159Z" fill="url(#paint8_linear_3645_261)"/>
<path d="M35.0844 53.9014C35.027 53.9025 34.97 53.9051 34.9127 53.9058C34.0974 53.9179 33.2811 53.8422 32.4788 53.7044C29.7298 53.2368 22.7305 52.0897 20.3793 52.1496C20.3577 52.1506 20.0437 52.1606 19.9095 52.1694C17.0196 52.3344 14.2799 53.5229 12.1061 55.4367L8.20751 58.8624L4.50752 82.2232L8.09451 82.7913C12.0767 83.4221 16.1458 83.2295 20.0507 82.2257C21.7462 81.7365 23.5642 81.7057 25.3202 82.1721C25.3202 82.1721 27.6561 82.8382 30.3805 83.6007L35.0844 53.9014Z" fill="url(#paint9_linear_3645_261)"/>
<path d="M53.6663 60.4063C50.8838 61.9326 48.0197 63.3005 45.086 64.5117L45.5265 65.2172C46.8639 67.3682 48.5131 69.1726 50.4483 70.6156L45.7299 74.7975C45.3265 75.1552 44.8869 75.4581 44.4218 75.7054C42.3733 66.6446 36.5636 59.0107 17.2272 57.7789C14.7652 57.6221 12.3734 57.2349 10.0025 57.2852L12.1059 55.4373C14.2797 53.5235 17.0193 52.335 19.9092 52.1699C20.0433 52.1612 20.3574 52.1509 20.379 52.1502C22.73 52.0902 29.7293 53.2373 32.4785 53.7049C33.2808 53.8427 34.0971 53.9184 34.9124 53.9064C39.7252 53.8445 44.4639 52.778 48.824 50.7909C51.0223 49.7906 53.5661 50.3776 55.1057 52.1303C55.3271 52.3816 55.5294 52.6576 55.7064 52.9596C57.242 55.5726 56.3243 58.9481 53.6663 60.4063Z" fill="url(#paint10_linear_3645_261)"/>
<path d="M38.6496 85.807C37.3441 85.6002 36.0545 85.2327 34.8106 84.6995L24.6046 80.3237C22.1901 79.2886 21.072 76.4922 22.1071 74.0777C23.1425 71.6633 25.9392 70.5456 28.3532 71.5802L38.5592 75.956C40.9604 76.9855 43.7749 76.5309 45.7296 74.7977L53.8339 67.6127C55.7997 65.8699 58.8062 66.0509 60.5487 68.0163C62.2915 69.9819 62.1106 72.9882 60.145 74.731L52.0407 81.916C48.3561 85.1828 43.3999 86.5594 38.6496 85.807Z" fill="url(#paint11_linear_3645_261)"/>
<path d="M55.1056 52.1319C53.5654 50.3787 51.0206 49.792 48.8225 50.792C44.463 52.7792 39.7249 53.8446 34.9128 53.9062C34.0966 53.9189 33.2811 53.8428 32.4771 53.7061C31.3224 53.5089 29.4155 53.192 27.4191 52.8955L24.4481 71.6534C25.6369 71.0922 27.0511 71.0227 28.354 71.5811L38.56 75.9569C40.9612 76.9864 43.7757 76.5318 45.7304 74.7986L50.4482 70.616C48.5134 69.1728 46.8629 67.3674 45.5254 65.2184L45.0852 64.5112C48.0181 63.3009 50.884 61.9324 53.666 60.4062C56.3245 58.9489 57.2418 55.5719 55.7051 52.9596C55.5297 52.6592 55.3272 52.3829 55.1056 52.1319Z" fill="url(#paint12_linear_3645_261)"/>
<path d="M53.6663 60.4061C50.8839 61.9324 48.0197 63.3004 45.0861 64.5116L26.9186 71.2144L26.9161 71.2162C26.0623 71.1344 25.2086 71.2946 24.4476 71.6535L27.4186 52.895C29.4156 53.192 31.3238 53.5091 32.4786 53.7049C33.2809 53.8427 34.0972 53.9184 34.9125 53.9064C39.7252 53.8445 44.464 52.778 48.824 50.7909C51.0223 49.7906 53.5661 50.3776 55.1058 52.1303C55.3271 52.3816 55.5295 52.6576 55.7064 52.9596C57.2421 55.5724 56.3244 58.9479 53.6663 60.4061Z" fill="url(#paint13_linear_3645_261)"/>
<path d="M53.6663 60.4061C50.8839 61.9324 48.0197 63.3004 45.0861 64.5116L26.9186 71.2144L26.9161 71.2162C26.0623 71.1344 25.2086 71.2946 24.4476 71.6535L27.4186 52.895C29.4156 53.192 31.3238 53.5091 32.4786 53.7049C33.2809 53.8427 34.0972 53.9184 34.9125 53.9064C39.7252 53.8445 44.464 52.778 48.824 50.7909C51.0223 49.7906 53.5661 50.3776 55.1058 52.1303C55.3271 52.3816 55.5295 52.6576 55.7064 52.9596C57.2421 55.5724 56.3244 58.9479 53.6663 60.4061Z" fill="url(#paint14_linear_3645_261)"/>
<path d="M14.7801 86.2606L3.77033 84.5169C2.06963 84.2475 0.909459 82.6504 1.17879 80.9499L6.65738 46.3595C6.92671 44.659 8.52362 43.4986 10.2243 43.768L21.2341 45.5117C22.9346 45.7811 24.095 47.378 23.8256 49.0787L18.347 83.6689C18.0775 85.3696 16.4806 86.53 14.7801 86.2606Z" fill="url(#paint15_linear_3645_261)"/>
<path d="M18.3475 83.6704L22.0602 60.2294L4.89221 57.5103L1.17952 80.9513C0.910155 82.652 2.07036 84.2488 3.77106 84.5182L14.7808 86.262C16.4813 86.5313 18.0782 85.3709 18.3475 83.6704Z" fill="url(#paint16_linear_3645_261)"/>
<path d="M78.5602 9.83952L103.886 14.1835C114.23 15.9577 121.284 25.0849 119.642 34.5696L117.534 46.7512C115.892 56.2359 106.176 62.4864 95.8319 60.7122L81.2958 58.2189C81.0379 58.1747 80.7823 58.2653 80.6175 58.4476C77.9528 61.3939 73.1891 63.0016 67.2335 63.3761C66.4971 63.4224 66.1619 62.5333 66.7705 62.1614C69.2315 60.6573 70.6011 58.989 71.0909 57.2093C71.1951 56.8305 70.9281 56.4408 70.5063 56.3684C60.1626 54.5941 53.1081 45.4669 54.7499 35.9822L56.8584 23.8006C58.5002 14.3159 68.2164 8.06531 78.5602 9.83952Z" fill="url(#paint17_linear_3645_261)"/>
<path d="M78.5506 9.83776L95.3439 12.7183L87.2931 59.2297L81.2839 58.1989C81.0261 58.1547 80.7707 58.2453 80.6059 58.4276C77.9425 61.3728 73.1812 62.98 67.2286 63.3543C66.4926 63.4007 66.1577 62.5119 66.7659 62.1401C69.2257 60.6365 70.5947 58.9689 71.0842 57.1898C71.1884 56.8111 70.9216 56.4215 70.5 56.3492C60.1614 54.5759 53.1108 45.4523 54.7519 35.9711L56.8597 23.7941C58.5008 14.3129 68.2122 8.06445 78.5506 9.83776Z" fill="url(#paint18_linear_3645_261)"/>
<path d="M56.8134 24.0686L54.7528 35.9731C53.1104 45.4616 60.1662 54.5923 70.5122 56.3669C70.9342 56.4393 71.2011 56.8293 71.0969 57.2082C70.607 58.9887 69.237 60.6577 66.7754 62.1625C66.1667 62.5347 66.5019 63.424 67.2384 63.3776C73.1954 63.0029 77.9602 61.3943 80.6256 58.4468C80.7906 58.2643 81.0462 58.1738 81.3041 58.218L95.8434 60.7119C106.189 62.4865 115.908 56.2331 117.55 46.7446L119.611 34.8401L56.8134 24.0686Z" fill="url(#paint19_linear_3645_261)"/>
<path d="M67.4484 22.6121L110.114 29.9364C110.704 30.0378 111.099 30.6043 110.996 31.2018C110.892 31.7993 110.33 32.2016 109.74 32.1002L67.0742 24.7759C66.4838 24.6746 66.0892 24.108 66.1925 23.5105C66.2959 22.913 66.858 22.5107 67.4484 22.6121Z" fill="url(#paint20_linear_3645_261)"/>
<path d="M64.9437 37.1458L107.609 44.4701C108.2 44.5714 108.594 45.138 108.491 45.7355C108.388 46.333 107.826 46.7353 107.235 46.6339L64.5696 39.3096C63.9792 39.2083 63.5846 38.6417 63.6879 38.0442C63.7912 37.4467 64.3534 37.0444 64.9437 37.1458Z" fill="url(#paint21_linear_3645_261)"/>
<path d="M82.4394 33.0399L108.8 37.5639C109.391 37.6652 109.786 38.2299 109.683 38.8251C109.58 39.4203 109.018 39.8207 108.427 39.7194L82.0665 35.1954C81.4762 35.094 81.0813 34.5294 81.1842 33.9342C81.2872 33.339 81.849 32.9385 82.4394 33.0399Z" fill="url(#paint22_linear_3645_261)"/>
</g>
<defs>
<linearGradient id="paint0_linear_3645_261" x1="65.2593" y1="76.4889" x2="66.4384" y2="84.4574" gradientUnits="userSpaceOnUse">
<stop stop-color="#FFDFCF"/>
<stop offset="1" stop-color="#FFA78F"/>
</linearGradient>
<linearGradient id="paint1_linear_3645_261" x1="72.467" y1="84.1667" x2="66.8279" y2="80.2727" gradientUnits="userSpaceOnUse">
<stop stop-color="#F89580" stop-opacity="0"/>
<stop offset="0.2859" stop-color="#EE8E79" stop-opacity="0.287"/>
<stop offset="0.7624" stop-color="#D57B65" stop-opacity="0.765"/>
<stop offset="0.9972" stop-color="#C5715A"/>
</linearGradient>
<linearGradient id="paint2_linear_3645_261" x1="61.0871" y1="74.1831" x2="65.9883" y2="81.2915" gradientUnits="userSpaceOnUse">
<stop stop-color="#FFDFCF"/>
<stop offset="1" stop-color="#FFA78F"/>
</linearGradient>
<linearGradient id="paint3_linear_3645_261" x1="67.7549" y1="83.9144" x2="59.0327" y2="76.1244" gradientUnits="userSpaceOnUse">
<stop stop-color="#F89580" stop-opacity="0"/>
<stop offset="0.2859" stop-color="#EE8E79" stop-opacity="0.287"/>
<stop offset="0.7624" stop-color="#D57B65" stop-opacity="0.765"/>
<stop offset="0.9972" stop-color="#C5715A"/>
</linearGradient>
<linearGradient id="paint4_linear_3645_261" x1="60.6198" y1="77.7305" x2="61.4778" y2="85.8006" gradientUnits="userSpaceOnUse">
<stop stop-color="#F89580" stop-opacity="0"/>
<stop offset="0.2859" stop-color="#EE8E79" stop-opacity="0.287"/>
<stop offset="0.7624" stop-color="#D57B65" stop-opacity="0.765"/>
<stop offset="0.9972" stop-color="#C5715A"/>
</linearGradient>
<linearGradient id="paint5_linear_3645_261" x1="50.8474" y1="74.6457" x2="57.1736" y2="83.3531" gradientUnits="userSpaceOnUse">
<stop stop-color="#FFDFCF"/>
<stop offset="1" stop-color="#FFA78F"/>
</linearGradient>
<linearGradient id="paint6_linear_3645_261" x1="56.7078" y1="83.645" x2="50.5085" y2="76.8649" gradientUnits="userSpaceOnUse">
<stop stop-color="#F89580" stop-opacity="0"/>
<stop offset="0.2859" stop-color="#EE8E79" stop-opacity="0.287"/>
<stop offset="0.7624" stop-color="#D57B65" stop-opacity="0.765"/>
<stop offset="0.9972" stop-color="#C5715A"/>
</linearGradient>
<linearGradient id="paint7_linear_3645_261" x1="52.7638" y1="78.5452" x2="52.6423" y2="87.0198" gradientUnits="userSpaceOnUse">
<stop stop-color="#F89580" stop-opacity="0"/>
<stop offset="0.2859" stop-color="#EE8E79" stop-opacity="0.287"/>
<stop offset="0.7624" stop-color="#D57B65" stop-opacity="0.765"/>
<stop offset="0.9972" stop-color="#C5715A"/>
</linearGradient>
<linearGradient id="paint8_linear_3645_261" x1="30.361" y1="60.184" x2="35.2517" y2="89.0332" gradientUnits="userSpaceOnUse">
<stop stop-color="#FFDFCF"/>
<stop offset="1" stop-color="#FFA78F"/>
</linearGradient>
<linearGradient id="paint9_linear_3645_261" x1="25.6753" y1="68.9935" x2="15.8502" y2="67.4374" gradientUnits="userSpaceOnUse">
<stop stop-color="#F89580" stop-opacity="0"/>
<stop offset="0.2859" stop-color="#EE8E79" stop-opacity="0.287"/>
<stop offset="0.7624" stop-color="#D57B65" stop-opacity="0.765"/>
<stop offset="0.9972" stop-color="#C5715A"/>
</linearGradient>
<linearGradient id="paint10_linear_3645_261" x1="33.0075" y1="58.635" x2="26.4439" y2="71.1749" gradientUnits="userSpaceOnUse">
<stop stop-color="#F89580" stop-opacity="0"/>
<stop offset="0.2859" stop-color="#EE8E79" stop-opacity="0.287"/>
<stop offset="0.7624" stop-color="#D57B65" stop-opacity="0.765"/>
<stop offset="0.9972" stop-color="#C5715A"/>
</linearGradient>
<linearGradient id="paint11_linear_3645_261" x1="44.7058" y1="77.5845" x2="49.983" y2="84.7269" gradientUnits="userSpaceOnUse">
<stop stop-color="#F89580" stop-opacity="0"/>
<stop offset="0.2859" stop-color="#EE8E79" stop-opacity="0.287"/>
<stop offset="0.7624" stop-color="#D57B65" stop-opacity="0.765"/>
<stop offset="0.9972" stop-color="#C5715A"/>
</linearGradient>
<linearGradient id="paint12_linear_3645_261" x1="41.065" y1="63.0535" x2="52.9213" y2="73.9338" gradientUnits="userSpaceOnUse">
<stop stop-color="#F89580" stop-opacity="0"/>
<stop offset="0.2859" stop-color="#EE8E79" stop-opacity="0.287"/>
<stop offset="0.7624" stop-color="#D57B65" stop-opacity="0.765"/>
<stop offset="0.9972" stop-color="#C5715A"/>
</linearGradient>
<linearGradient id="paint13_linear_3645_261" x1="42.6099" y1="64.1968" x2="49.8931" y2="70.2329" gradientUnits="userSpaceOnUse">
<stop stop-color="#F89580" stop-opacity="0"/>
<stop offset="0.2859" stop-color="#EE8E79" stop-opacity="0.287"/>
<stop offset="0.7624" stop-color="#D57B65" stop-opacity="0.765"/>
<stop offset="0.9972" stop-color="#C5715A"/>
</linearGradient>
<linearGradient id="paint14_linear_3645_261" x1="42.7002" y1="58.3781" x2="52.0152" y2="56.1727" gradientUnits="userSpaceOnUse">
<stop stop-color="#F89580" stop-opacity="0"/>
<stop offset="0.2859" stop-color="#EE8E79" stop-opacity="0.287"/>
<stop offset="0.7624" stop-color="#D57B65" stop-opacity="0.765"/>
<stop offset="0.9972" stop-color="#C5715A"/>
</linearGradient>
<linearGradient id="paint15_linear_3645_261" x1="6.26" y1="64.0257" x2="20.156" y2="66.2267" gradientUnits="userSpaceOnUse">
<stop stop-color="#B3DAFE"/>
<stop offset="1" stop-color="#0182FC"/>
</linearGradient>
<linearGradient id="paint16_linear_3645_261" x1="10.8061" y1="75.7289" x2="9.16041" y2="86.1195" gradientUnits="userSpaceOnUse">
<stop stop-color="#314DC9" stop-opacity="0"/>
<stop offset="0.2761" stop-color="#304BC4" stop-opacity="0.276"/>
<stop offset="0.5628" stop-color="#2B45B8" stop-opacity="0.563"/>
<stop offset="0.8535" stop-color="#243BA3" stop-opacity="0.854"/>
<stop offset="1" stop-color="#1F3596"/>
</linearGradient>
<linearGradient id="paint17_linear_3645_261" x1="98.6701" y1="19.2151" x2="74.3203" y2="58.4558" gradientUnits="userSpaceOnUse">
<stop stop-color="#F5FBFF"/>
<stop offset="1" stop-color="#D8ECFE"/>
</linearGradient>
<linearGradient id="paint18_linear_3645_261" x1="67.5457" y1="35.6911" x2="55.3651" y2="33.5827" gradientUnits="userSpaceOnUse">
<stop stop-color="#B3DAFE" stop-opacity="0"/>
<stop offset="0.4315" stop-color="#B1D9FE" stop-opacity="0.432"/>
<stop offset="0.6657" stop-color="#A9D6FE" stop-opacity="0.666"/>
<stop offset="0.852" stop-color="#9BD0FE" stop-opacity="0.852"/>
<stop offset="1" stop-color="#8AC9FE"/>
</linearGradient>
<linearGradient id="paint19_linear_3645_261" x1="85.4014" y1="45.6935" x2="82.8915" y2="60.3256" gradientUnits="userSpaceOnUse">
<stop stop-color="#B3DAFE" stop-opacity="0"/>
<stop offset="0.4315" stop-color="#B1D9FE" stop-opacity="0.432"/>
<stop offset="0.6657" stop-color="#A9D6FE" stop-opacity="0.666"/>
<stop offset="0.852" stop-color="#9BD0FE" stop-opacity="0.852"/>
<stop offset="1" stop-color="#8AC9FE"/>
</linearGradient>
<linearGradient id="paint20_linear_3645_261" x1="106.177" y1="7.22821" x2="77.4503" y2="39.4191" gradientUnits="userSpaceOnUse">
<stop stop-color="#5A5A5A"/>
<stop offset="1" stop-color="#444444"/>
</linearGradient>
<linearGradient id="paint21_linear_3645_261" x1="103.672" y1="21.7619" x2="74.9456" y2="53.9528" gradientUnits="userSpaceOnUse">
<stop stop-color="#5A5A5A"/>
<stop offset="1" stop-color="#444444"/>
</linearGradient>
<linearGradient id="paint22_linear_3645_261" x1="120.607" y1="7.66236" x2="83.9981" y2="48.8306" gradientUnits="userSpaceOnUse">
<stop stop-color="#5A5A5A"/>
<stop offset="1" stop-color="#444444"/>
</linearGradient>
<clipPath id="clip0_3645_261">
<rect width="110" height="84" fill="white" transform="translate(14) rotate(9)"/>
</clipPath>
</defs>
</svg>
