<svg width="14" height="21" viewBox="0 0 14 21" fill="none" xmlns="http://www.w3.org/2000/svg">
<path fill-rule="evenodd" clip-rule="evenodd" d="M5.43414 2.33404C6.51247 1.2557 7.97501 0.649902 9.5 0.649902H12.5C12.9142 0.649902 13.25 0.985689 13.25 1.3999V5.3999C13.25 5.81412 12.9142 6.1499 12.5 6.1499H9.5C9.4337 6.1499 9.37011 6.17624 9.32322 6.22313C9.27634 6.27001 9.25 6.3336 9.25 6.3999V7.6499H12.5C12.731 7.6499 12.949 7.75631 13.0912 7.93834C13.2333 8.12038 13.2836 8.35775 13.2276 8.5818L12.2276 12.5818C12.1441 12.9157 11.8442 13.1499 11.5 13.1499H9.25V19.3999C9.25 19.8141 8.91421 20.1499 8.5 20.1499H4.5C4.08579 20.1499 3.75 19.8141 3.75 19.3999V13.1499H1.5C1.08579 13.1499 0.75 12.8141 0.75 12.3999V8.3999C0.75 7.98569 1.08579 7.6499 1.5 7.6499H3.75V6.3999C3.75 4.87491 4.3558 3.41237 5.43414 2.33404ZM9.5 2.1499C8.37283 2.1499 7.29183 2.59767 6.4948 3.3947C5.69777 4.19173 5.25 5.27273 5.25 6.3999V8.3999C5.25 8.81412 4.91421 9.1499 4.5 9.1499H2.25V11.6499H4.5C4.91421 11.6499 5.25 11.9857 5.25 12.3999V18.6499H7.75V12.3999C7.75 11.9857 8.08579 11.6499 8.5 11.6499H10.9144L11.5394 9.1499H8.5C8.08579 9.1499 7.75 8.81412 7.75 8.3999V6.3999C7.75 5.93577 7.93437 5.49065 8.26256 5.16247C8.59075 4.83428 9.03587 4.6499 9.5 4.6499H11.75V2.1499H9.5Z" fill="#191E26"/>
</svg>
