<svg width="19" height="19" viewBox="0 0 19 19" fill="none" xmlns="http://www.w3.org/2000/svg">
<path fill-rule="evenodd" clip-rule="evenodd" d="M3.5 2.1499C3.16848 2.1499 2.85054 2.2816 2.61612 2.51602C2.3817 2.75044 2.25 3.06838 2.25 3.3999V15.3999C2.25 15.7314 2.3817 16.0494 2.61612 16.2838C2.85054 16.5182 3.16848 16.6499 3.5 16.6499H15.5C15.8315 16.6499 16.1495 16.5182 16.3839 16.2838C16.6183 16.0494 16.75 15.7314 16.75 15.3999V3.3999C16.75 3.06838 16.6183 2.75044 16.3839 2.51602C16.1495 2.2816 15.8315 2.1499 15.5 2.1499H3.5ZM1.55546 1.45536C2.07118 0.939633 2.77065 0.649902 3.5 0.649902H15.5C16.2293 0.649902 16.9288 0.939634 17.4445 1.45536C17.9603 1.97108 18.25 2.67056 18.25 3.3999V15.3999C18.25 16.1292 17.9603 16.8287 17.4445 17.3444C16.9288 17.8602 16.2293 18.1499 15.5 18.1499H3.5C2.77065 18.1499 2.07118 17.8602 1.55546 17.3444C1.03973 16.8287 0.75 16.1292 0.75 15.3999V3.3999C0.75 2.67056 1.03973 1.97108 1.55546 1.45536ZM5.5 4.6499C5.91421 4.6499 6.25 4.98569 6.25 5.3999V5.4099C6.25 5.82412 5.91421 6.1599 5.5 6.1599C5.08579 6.1599 4.75 5.82412 4.75 5.4099V5.3999C4.75 4.98569 5.08579 4.6499 5.5 4.6499ZM5.5 7.6499C5.91421 7.6499 6.25 7.98569 6.25 8.3999V13.3999C6.25 13.8141 5.91421 14.1499 5.5 14.1499C5.08579 14.1499 4.75 13.8141 4.75 13.3999V8.3999C4.75 7.98569 5.08579 7.6499 5.5 7.6499ZM10.1405 8.00946C10.0087 7.79383 9.77118 7.6499 9.5 7.6499C9.08579 7.6499 8.75 7.98569 8.75 8.3999V13.3999C8.75 13.8141 9.08579 14.1499 9.5 14.1499C9.91421 14.1499 10.25 13.8141 10.25 13.3999V10.3999C10.25 10.0684 10.3817 9.75044 10.6161 9.51602C10.8505 9.2816 11.1685 9.1499 11.5 9.1499C11.8315 9.1499 12.1495 9.2816 12.3839 9.51602C12.6183 9.75044 12.75 10.0684 12.75 10.3999V13.3999C12.75 13.8141 13.0858 14.1499 13.5 14.1499C13.9142 14.1499 14.25 13.8141 14.25 13.3999V10.3999C14.25 9.67056 13.9603 8.97108 13.4445 8.45536C12.9288 7.93963 12.2293 7.6499 11.5 7.6499C11.0191 7.6499 10.5513 7.77584 10.1405 8.00946Z" fill="#191E26"/>
</svg>
