<svg width="37" height="40" viewBox="0 0 37 40" fill="none" xmlns="http://www.w3.org/2000/svg">
<path d="M36.593 22.1295C36.1999 23.136 35.305 23.9579 34.431 24.7547C32.6489 26.3923 30.7766 27.9282 28.8229 29.3553C22.3743 34.0508 15.1294 37.5335 7.44039 39.6342C6.07288 40.0074 4.48791 40.2968 3.34622 39.458C2.45128 38.7996 2.09163 37.6421 1.84489 36.5643C0.740844 32.0351 0.314281 27.3381 0.0173595 22.725C-0.0596901 22.2698 0.00759317 21.8019 0.209731 21.3872C0.427869 21.0955 0.715434 20.8634 1.04613 20.712C3.80206 19.1854 6.70436 17.7763 9.19264 15.8346C9.94122 15.2475 10.7442 14.4884 10.6982 13.5365C10.6647 12.8403 10.1838 12.2783 9.72376 11.7457C7.71222 9.48948 4.55482 6.63354 2.34255 4.57441C6.84219 6.78092 10.9583 9.69935 14.533 13.2177C15.014 13.7126 15.5074 14.2662 15.5785 14.9539C15.6747 15.8975 14.9429 16.7069 14.2445 17.3486C13.1325 18.3748 11.9609 19.334 10.7358 20.2213C10.4781 20.3735 10.2658 20.5922 10.121 20.8546C10.0242 21.1141 9.99538 21.3942 10.0374 21.6681C10.1852 23.3065 10.3971 24.9365 10.6731 26.5581C13.6456 24.8092 16.4758 22.8277 19.1374 20.6323C20.392 19.6258 21.7553 18.3509 21.6968 16.7363C21.6508 15.5704 20.8604 14.5807 20.0909 13.7084C15.2269 8.22101 9.48257 3.58739 3.0953 -0.000976562C15.1144 2.66946 26.1191 8.73669 34.8073 17.4828C35.5345 18.1341 36.1234 18.9257 36.5387 19.8103C36.7009 20.1739 36.7892 20.5662 36.7986 20.9644C36.8079 21.3626 36.738 21.7586 36.593 22.1295Z" fill="#FCBF10"/>
</svg>
