<svg width="20" height="21" viewBox="0 0 20 21" fill="none" xmlns="http://www.w3.org/2000/svg">
<path fill-rule="evenodd" clip-rule="evenodd" d="M4.16667 5.19141C3.8904 5.19141 3.62545 5.30115 3.4301 5.4965C3.30832 5.61828 3.21981 5.7671 3.17041 5.92886L10 10.4819L16.8296 5.92886C16.7802 5.76711 16.6917 5.61828 16.5699 5.4965C16.3746 5.30115 16.1096 5.19141 15.8333 5.19141H4.16667ZM16.875 7.4009L10.3467 11.7531C10.1368 11.8931 9.86325 11.8931 9.65331 11.7531L3.125 7.4009V14.5664C3.125 14.8427 3.23475 15.1076 3.4301 15.303C3.62545 15.4983 3.8904 15.6081 4.16667 15.6081H15.8333C16.1096 15.6081 16.3746 15.4983 16.5699 15.303C16.7653 15.1076 16.875 14.8427 16.875 14.5664V7.4009ZM2.54621 4.61262C2.97598 4.18285 3.55888 3.94141 4.16667 3.94141H15.8333C16.4411 3.94141 17.024 4.18285 17.4538 4.61262C17.8836 5.04239 18.125 5.62528 18.125 6.23307V14.5664C18.125 15.1742 17.8836 15.7571 17.4538 16.1869C17.024 16.6166 16.4411 16.8581 15.8333 16.8581H4.16667C3.55888 16.8581 2.97598 16.6166 2.54621 16.1869C2.11644 15.7571 1.875 15.1742 1.875 14.5664V6.23307C1.875 5.62529 2.11644 5.04239 2.54621 4.61262Z" fill="#191E26"/>
</svg>
