<svg width="84" height="21" viewBox="0 0 84 21" fill="none" xmlns="http://www.w3.org/2000/svg">
<g clip-path="url(#clip0_3619_2425)">
<path fill-rule="evenodd" clip-rule="evenodd" d="M72.6134 4.31641V16.483H75.3662V12.5585H77.4307L80.0851 16.483H83.231L80.2817 12.2641C80.2817 12.2641 82.9007 11.229 82.9007 8.42125C82.9007 4.45737 79.2986 4.31673 79.2986 4.31673L72.6134 4.31641ZM75.3662 6.67157V10.2038H78.9054C78.9054 10.2038 80.2581 10.2035 80.2581 8.43737C80.2581 6.60431 78.6104 6.67157 78.6104 6.67157H75.3662ZM42.1373 4.31673V16.483H51.3785V14.1282H44.8901V11.5775H50.4938V9.2227H44.8901V6.66963H51.3785V4.31673H42.1375H42.1373ZM28.7672 4.31673V6.67157H32.4046V16.483H35.1573V6.67157H38.7947V4.31673H28.7672ZM16.1835 4.31673V16.483H25.4246V14.1282H18.936V11.5775H24.5397V9.2227H18.936V6.66963H25.4246V4.31673H16.1835ZM0.650391 4.31641V16.4833L3.4012 16.4832V8.82979L6.74378 13.7356L10.0881 8.82979V16.4833H12.8409V4.31641H10.0881L6.74394 9.32028L3.4012 4.31641H0.650391Z" fill="#26262C"/>
<path fill-rule="evenodd" clip-rule="evenodd" d="M49.6504 -3.68359L66.9546 14.6458C66.9546 14.6458 67.5443 15.0616 67.9949 14.5764C68.4459 14.0914 68.0991 13.6064 68.0991 13.6064L49.6504 -3.68359ZM55.1294 -1.95117L68.3072 12.255C68.3072 12.255 68.8967 12.6708 69.3475 12.1856C69.7983 11.7006 69.4515 11.2156 69.4515 11.2156L55.1294 -1.95117ZM51.2802 1.75625L64.4578 15.9625C64.4578 15.9625 65.0473 16.3783 65.4981 15.8932C65.9489 15.408 65.6022 14.923 65.6022 14.923L51.2802 1.75625ZM59.7614 -0.461174L68.9678 9.46383C68.9678 9.46383 69.3796 9.75415 69.6946 9.41544C70.0096 9.07641 69.7672 8.73754 69.7672 8.73754L59.7614 -0.461174ZM52.5483 6.0527L61.7547 15.9779C61.7547 15.9779 62.1667 16.2682 62.4815 15.9295C62.7965 15.5904 62.5543 15.2516 62.5543 15.2516L52.5483 6.0527ZM64.4926 1.68705L68.6652 6.19899C68.6652 6.19899 68.8689 6.33512 69.0247 6.17641C69.1806 6.01754 69.0607 5.85866 69.0607 5.85866L64.4925 1.68705H64.4926ZM54.852 10.6266L59.0246 15.1385C59.0246 15.1385 59.2285 15.2746 59.3843 15.1159C59.5401 14.9571 59.4202 14.7982 59.4202 14.7982L54.852 10.6266Z" fill="#DF4F4F"/>
</g>
<defs>
<clipPath id="clip0_3619_2425">
<rect width="82.5806" height="20" fill="white" transform="translate(0.650391 0.399902)"/>
</clipPath>
</defs>
</svg>
