<svg width="18" height="16" viewBox="0 0 18 16" fill="none" xmlns="http://www.w3.org/2000/svg">
<path fill-rule="evenodd" clip-rule="evenodd" d="M3.16667 1.3584C2.8904 1.3584 2.62545 1.46815 2.4301 1.6635C2.23875 1.85484 2.12954 2.11296 2.12514 2.38308C2.31806 5.47355 3.63275 8.38755 5.82263 10.5774C8.01252 12.7673 10.9265 14.082 14.017 14.2749C14.2871 14.2705 14.5452 14.1613 14.7366 13.97C14.9319 13.7746 15.0417 13.5097 15.0417 13.2334V10.3232L11.7621 9.01138L10.7859 10.6383C10.6186 10.9172 10.2653 11.0211 9.97355 10.8773C8.04056 9.92395 6.47611 8.3595 5.5228 6.42651C5.37892 6.13479 5.48286 5.78148 5.76177 5.61413L7.38869 4.63798L6.07685 1.3584H3.16667ZM1.54621 0.779612C1.97598 0.349841 2.55888 0.108398 3.16667 0.108398H6.5C6.75557 0.108398 6.98538 0.263993 7.0803 0.501279L8.74696 4.66795C8.86089 4.95277 8.75127 5.27817 8.48823 5.436L6.91508 6.37989C7.66174 7.66774 8.73232 8.73833 10.0202 9.48499L10.9641 7.91184C11.1219 7.64879 11.4473 7.53917 11.7321 7.6531L15.8988 9.31977C16.1361 9.41468 16.2917 9.6445 16.2917 9.90007V13.2334C16.2917 13.8412 16.0502 14.4241 15.6205 14.8539C15.1907 15.2836 14.6078 15.5251 14 15.5251C13.9874 15.5251 13.9747 15.5247 13.9621 15.5239C10.5591 15.3171 7.34946 13.872 4.93875 11.4613C2.52804 9.0506 1.08295 5.84096 0.876151 2.43798C0.875384 2.42535 0.875 2.41271 0.875 2.40007C0.875 1.79228 1.11644 1.20938 1.54621 0.779612ZM11.5 2.6084C11.8452 2.6084 12.125 2.88822 12.125 3.2334V3.24173C12.125 3.58691 11.8452 3.86673 11.5 3.86673C11.1548 3.86673 10.875 3.58691 10.875 3.24173V3.2334C10.875 2.88822 11.1548 2.6084 11.5 2.6084ZM14 2.6084C14.3452 2.6084 14.625 2.88822 14.625 3.2334V3.24173C14.625 3.58691 14.3452 3.86673 14 3.86673C13.6548 3.86673 13.375 3.58691 13.375 3.24173V3.2334C13.375 2.88822 13.6548 2.6084 14 2.6084ZM16.5 2.6084C16.8452 2.6084 17.125 2.88822 17.125 3.2334V3.24173C17.125 3.58691 16.8452 3.86673 16.5 3.86673C16.1548 3.86673 15.875 3.58691 15.875 3.24173V3.2334C15.875 2.88822 16.1548 2.6084 16.5 2.6084Z" fill="#191E26"/>
</svg>
