<svg width="20" height="21" viewBox="0 0 20 21" fill="none" xmlns="http://www.w3.org/2000/svg">
<path fill-rule="evenodd" clip-rule="evenodd" d="M7.53291 3.79943C6.95429 3.53812 6.30981 3.45925 5.68525 3.57331C5.06069 3.68738 4.48569 3.98897 4.0368 4.43794C3.5879 4.88691 3.28641 5.46196 3.17245 6.08654C3.05849 6.71111 3.13747 7.35558 3.39888 7.93415C3.46163 8.07305 3.47147 8.23008 3.42655 8.37572C3.05796 9.57061 3.02224 10.8434 3.32324 12.0571C3.62423 13.2708 4.25053 14.3794 5.13473 15.2636C6.01894 16.1478 7.12754 16.7741 8.34123 17.0751C9.55491 17.3761 10.8277 17.3403 12.0226 16.9718C12.1682 16.9269 12.3251 16.9367 12.464 16.9994C13.0425 17.2605 13.6869 17.3393 14.3113 17.2253C14.9358 17.1112 15.5107 16.8097 15.9595 16.3608C16.4084 15.912 16.7099 15.3371 16.8239 14.7127C16.938 14.0882 16.8592 13.4439 16.598 12.8653C16.5354 12.7265 16.5255 12.5697 16.5704 12.4241C16.8872 11.3956 16.9582 10.3071 16.7777 9.2462C16.5971 8.18526 16.1699 7.18153 15.5306 6.3158C14.8913 5.45007 14.0577 4.74652 13.0969 4.26176C12.136 3.77701 11.0748 3.52459 9.99862 3.52483L9.99768 3.52483C9.31167 3.52394 8.62941 3.62589 7.97364 3.82729C7.82823 3.87194 7.67153 3.86204 7.53291 3.79943ZM7.82738 2.56799C7.07576 2.27675 6.25666 2.19828 5.46067 2.34365C4.58629 2.50334 3.7813 2.92557 3.15284 3.55413C2.52439 4.18269 2.10229 4.98776 1.94275 5.86216C1.79754 6.65801 1.87609 7.47692 2.1673 8.22836C1.79317 9.57571 1.77277 10.9982 2.10999 12.358C2.46571 13.7923 3.20589 15.1025 4.25085 16.1475C5.29582 17.1924 6.60599 17.9326 8.04034 18.2883C9.40012 18.6255 10.8227 18.6051 12.1701 18.231C12.9215 18.5219 13.7403 18.6003 14.5359 18.4549C15.4101 18.2952 16.215 17.8731 16.8434 17.2447C17.4718 16.6163 17.8939 15.8115 18.0536 14.9373C18.1989 14.1416 18.1206 13.3227 17.8296 12.5713C18.1485 11.4215 18.2105 10.2146 18.0099 9.03644C17.7965 7.78261 17.2917 6.59639 16.5362 5.57325C15.7806 4.55012 14.7955 3.71864 13.6599 3.14575C12.5245 2.57293 11.2705 2.27462 9.99882 2.27483C9.26473 2.27392 8.53427 2.37263 7.82738 2.56799ZM7.79128 7.37092C7.42921 7.63293 7.29102 7.96213 7.29102 8.31657C7.29102 8.63981 7.49409 8.98849 8.00267 9.28882C8.50712 9.5867 9.22628 9.7749 9.99935 9.7749C10.9534 9.7749 11.9009 10.0026 12.6314 10.4336C13.3581 10.8623 13.9577 11.5555 13.9577 12.4832C13.9577 13.223 13.6396 13.9354 12.9402 14.4415C12.2638 14.9311 11.283 15.1916 9.99935 15.1916C9.26304 15.1916 8.42327 15.0813 7.69092 14.7062C6.93478 14.319 6.31558 13.6584 6.05968 12.6348C5.97596 12.2999 6.17956 11.9606 6.51443 11.8769C6.8493 11.7932 7.18864 11.9968 7.27236 12.3317C7.43312 12.9747 7.79642 13.3558 8.2607 13.5936C8.74876 13.8436 9.36732 13.9416 9.99935 13.9416C11.1365 13.9416 11.8224 13.7075 12.2074 13.4289C12.5695 13.1669 12.7077 12.8377 12.7077 12.4832C12.7077 12.1585 12.5043 11.81 11.9962 11.5102C11.4919 11.2126 10.7728 11.0249 9.99935 11.0249C9.04492 11.0249 8.09741 10.7964 7.36707 10.3652C6.64086 9.93632 6.04102 9.24333 6.04102 8.31657C6.04102 7.57684 6.35907 6.86437 7.05846 6.35826C7.7349 5.86875 8.71565 5.60824 9.99935 5.60824C10.7357 5.60824 11.5754 5.71856 12.3078 6.09361C13.0639 6.48084 13.6831 7.14139 13.939 8.16498C14.0227 8.49986 13.8191 8.83919 13.4843 8.92291C13.1494 9.00663 12.8101 8.80303 12.7263 8.46815C12.5656 7.82508 12.2023 7.44396 11.738 7.2062C11.2499 6.95625 10.6314 6.85824 9.99935 6.85824C8.86222 6.85824 8.17629 7.0923 7.79128 7.37092Z" fill="#191E26"/>
</svg>
