<svg width="24" height="24" viewBox="0 0 24 24" fill="none" xmlns="http://www.w3.org/2000/svg">
<path d="M11.295 1.92307C11.3475 1.77829 11.4434 1.65319 11.5695 1.56478C11.6956 1.47638 11.8459 1.42896 12 1.42896C12.154 1.42896 12.3043 1.47638 12.4304 1.56478C12.5565 1.65319 12.6524 1.77829 12.705 1.92307L13.422 3.88207C13.9836 5.41822 14.8737 6.81326 16.0302 7.96979C17.1868 9.12632 18.5818 10.0165 20.118 10.5781L22.0755 11.2951C22.2202 11.3476 22.3453 11.4435 22.4337 11.5696C22.5221 11.6957 22.5696 11.846 22.5696 12.0001C22.5696 12.1541 22.5221 12.3044 22.4337 12.4305C22.3453 12.5567 22.2202 12.6525 22.0755 12.7051L20.118 13.4221C18.5818 13.9837 17.1868 14.8738 16.0302 16.0304C14.8737 17.1869 13.9836 18.5819 13.422 20.1181L12.705 22.0756C12.6524 22.2204 12.5565 22.3455 12.4304 22.4339C12.3043 22.5223 12.154 22.5697 12 22.5697C11.8459 22.5697 11.6956 22.5223 11.5695 22.4339C11.4434 22.3455 11.3475 22.2204 11.295 22.0756L10.578 20.1181C10.0163 18.5819 9.1262 17.1869 7.96967 16.0304C6.81314 14.8738 5.4181 13.9837 3.88195 13.4221L1.92295 12.7051C1.77816 12.6525 1.65307 12.5567 1.56466 12.4305C1.47626 12.3044 1.42883 12.1541 1.42883 12.0001C1.42883 11.846 1.47626 11.6957 1.56466 11.5696C1.65307 11.4435 1.77816 11.3476 1.92295 11.2951L3.88195 10.5781C5.4181 10.0165 6.81314 9.12632 7.96967 7.96979C9.1262 6.81326 10.0163 5.41822 10.578 3.88207L11.295 1.92307Z" fill="#FCBF10"/>
</svg>
