<svg width="175" height="178" viewBox="0 0 175 178" fill="none" xmlns="http://www.w3.org/2000/svg">
<path fill-rule="evenodd" clip-rule="evenodd" d="M56.7501 172.38C52.3385 174.377 47.7738 176.337 42.9542 176.74C33.4639 177.533 28.0601 171.58 24.6098 163.555C14.5269 139.931 7.75888 114.862 4.1366 89.3353C2.24831 76.0249 1.16443 62.5899 1.05493 49.136C0.983981 37.0684 -0.540219 19.8414 5.0883 8.87575C8.98885 1.22404 16.4895 0.366135 24.0239 1.13183C54.6871 4.24901 84.4526 14.0092 112.472 26.9225C127.103 33.6642 141.259 41.4455 154.953 49.9741C156.613 51.0067 158.698 52.2135 160.893 53.6053C168.559 58.4611 178.635 67.1495 173.08 77.9322C157.704 100.073 138.471 116.241 117.368 133.309C98.9605 148.316 78.4463 162.557 56.7501 172.38Z" fill="#FCBF10" stroke="#FFCC3B" stroke-width="0.515281"/>
</svg>
