<svg width="23" height="19" viewBox="0 0 23 19" fill="none" xmlns="http://www.w3.org/2000/svg">
<path fill-rule="evenodd" clip-rule="evenodd" d="M18.7187 1.55751C17.3339 0.315821 15.4715 0.356259 13.8571 0.960783C11.9824 1.66276 10.7248 3.39599 10.7501 5.40507V5.64042C8.05867 5.49671 5.69119 4.17228 4.1099 1.96356C3.96066 1.7551 3.71528 1.63732 3.45928 1.65127C3.20328 1.66521 2.97215 1.80896 2.84643 2.0324L3.50008 2.40016C2.84643 2.0324 2.84665 2.03201 2.84643 2.0324L2.84549 2.03407L2.84417 2.03644L2.84041 2.04322L2.82859 2.06488C2.81886 2.08287 2.80551 2.10793 2.78906 2.13972C2.75616 2.20327 2.71078 2.29383 2.65706 2.40862C2.54976 2.63793 2.40844 2.96551 2.26683 3.36885C1.98508 4.17136 1.6943 5.2961 1.68186 6.55513C1.66938 7.81992 1.93833 9.23276 2.78957 10.5777C3.46566 11.6459 4.48689 12.6361 5.95728 13.4695C4.54437 14.2588 3.13918 14.7134 1.52925 14.6507C1.18118 14.6372 0.869606 14.8651 0.777044 15.2009C0.684481 15.5367 0.835301 15.892 1.14115 16.0587C4.57559 17.9306 8.38593 18.612 11.7432 17.6374C15.5582 16.5291 18.7042 13.66 19.9071 9.37799L19.9081 9.37438C20.2528 8.12351 20.429 6.83242 20.4322 5.5353C20.4328 5.53392 20.4335 5.53252 20.4341 5.53109C20.4678 5.4545 20.5207 5.34501 20.5928 5.20167C20.6712 5.04596 20.7598 4.87436 20.8581 4.68421C20.9459 4.51426 21.0413 4.32948 21.1439 4.12797C21.5455 3.33934 22.0387 2.33141 22.2222 1.61286C22.2405 1.54782 22.2501 1.47973 22.2501 1.41016V1.40916C22.2501 1.03014 21.9673 0.710686 21.5911 0.664697C21.4295 0.64495 21.2726 0.678288 21.1388 0.751888C20.4612 1.07973 19.8145 1.25681 19.0832 1.45707C18.9642 1.48969 18.8428 1.52291 18.7187 1.55751ZM20.1735 2.70922C19.9059 2.7888 19.6426 2.86068 19.3866 2.93059C19.1552 2.99376 18.9298 3.05532 18.7124 3.11949C18.4333 3.20184 18.1317 3.11535 17.9388 2.89757C17.1055 1.95729 15.8253 1.82549 14.3831 2.36553C13.0654 2.85893 12.2316 4.04724 12.25 5.38987L12.2501 5.40016L12.2501 6.40016C12.2501 6.8069 11.9259 7.13951 11.5193 7.14991C8.45855 7.2282 5.68458 6.0138 3.69433 3.83123C3.69027 3.84266 3.6862 3.85416 3.68214 3.86574C3.43545 4.56839 3.19211 5.52484 3.18179 6.56994C3.17153 7.60926 3.3912 8.72349 4.05703 9.77547C4.72178 10.8258 5.86649 11.8698 7.7998 12.7126C8.05138 12.8223 8.22297 13.0607 8.24716 13.334C8.27135 13.6074 8.14429 13.8722 7.91587 14.0243C6.75688 14.7964 5.56474 15.4413 4.26008 15.8133C6.6984 16.6671 9.157 16.8262 11.3249 16.1969C14.6693 15.2253 17.4072 12.729 18.4626 8.97387C18.7807 7.81842 18.9387 6.62475 18.9321 5.42631L18.9321 5.42216C18.9321 5.27369 18.9757 5.147 18.9887 5.10932L18.9897 5.10634C19.0106 5.04548 19.0363 4.98342 19.061 4.92718C19.1111 4.81328 19.1786 4.67511 19.2528 4.52752C19.3306 4.37299 19.4278 4.18478 19.5319 3.98308C19.6212 3.81018 19.7156 3.62736 19.8072 3.44735C19.933 3.20027 20.0574 2.95111 20.1735 2.70922ZM20.4085 5.59304C20.4088 5.59217 20.4094 5.59061 20.4103 5.58831C20.4065 5.60135 20.4048 5.60391 20.4085 5.59304Z" fill="#191E26"/>
</svg>
