<svg width="65" height="17" viewBox="0 0 65 17" fill="none" xmlns="http://www.w3.org/2000/svg">
<g clip-path="url(#clip0_3619_2435)">
<path d="M18.0998 9.49142C17.0621 9.49142 16.0897 9.05207 15.2063 8.33686L15.4214 7.32722L15.4308 7.28981C15.6223 6.21482 16.23 4.41041 18.0998 4.41041C19.502 4.41041 20.6426 5.551 20.6426 6.95322C20.6379 8.35083 19.4974 9.49142 18.0998 9.49142ZM18.0998 1.83493C15.7111 1.83493 13.8602 3.3868 13.1077 5.93896C11.9578 4.21412 11.0883 2.14345 10.5789 0.399902H8.00798V7.08878C8.00798 8.40695 6.93287 9.48194 5.6147 9.48194C4.29653 9.48194 3.22154 8.40695 3.22154 7.08878V0.399902H0.65042V7.08878C0.641067 9.828 2.87073 12.0763 5.60984 12.0763C8.34906 12.0763 10.5787 9.828 10.5787 7.08878V5.96702C11.0788 7.00934 11.6911 8.06101 12.4344 8.99595L10.8591 16.3999H13.4908L14.6313 11.0292C15.6316 11.6696 16.7815 12.0716 18.0997 12.0716C20.9182 12.0716 23.2133 9.76253 23.2133 6.94387C23.2133 4.12994 20.9183 1.83493 18.0998 1.83493Z" fill="#6FDA44"/>
<path d="M30.9677 5.75873L32.627 12.4476L34.4548 5.75873H36.6329L33.8237 15.4251H31.6454L29.9207 8.69412L28.2005 15.4204H26.0223L23.2129 5.75411H25.3912L27.2188 12.443L28.8782 5.75411H30.9675V5.75885L30.9677 5.75873ZM41.8447 5.46891C39.0169 5.46891 36.7265 7.76392 36.7265 10.5872C36.7265 13.4152 39.0215 15.7056 41.8447 15.7056C44.6728 15.7056 46.9678 13.4152 46.9678 10.5872C46.9678 7.75931 44.6728 5.46891 41.8447 5.46891ZM41.8447 13.6022C40.1808 13.6022 38.8345 12.2559 38.8345 10.5919C38.8345 8.92783 40.1854 7.58172 41.8447 7.58172C43.5089 7.58172 44.855 8.92783 44.855 10.5919C44.855 12.2513 43.5089 13.6022 41.8447 13.6022ZM53.1892 7.92292C51.7263 7.92292 50.5437 9.11015 50.5437 10.5685V15.4204H48.3513V5.75873H50.5437V7.24513C50.5437 7.24513 51.4785 5.75399 53.3996 5.75399H54.0727V7.92292H53.1892ZM60.5467 10.2133C62.103 9.3345 63.1596 7.66577 63.1596 5.75399H60.9672C60.9672 7.3666 59.6585 8.67542 58.0459 8.67542H57.7513V1.09375H55.5592V15.4203H57.7513V10.8677H58.0132C58.2282 10.8677 58.5087 11.008 58.6349 11.1808L61.7479 15.4204H64.3749L60.5467 10.2133Z" fill="black"/>
</g>
<defs>
<clipPath id="clip0_3619_2435">
<rect width="63.7249" height="16" fill="white" transform="translate(0.650391 0.399902)"/>
</clipPath>
</defs>
</svg>
