<svg width="80" height="19" viewBox="0 0 80 19" fill="none" xmlns="http://www.w3.org/2000/svg">
<g clip-path="url(#clip0_3984_12785)">
<path d="M23.68 9.17571C25.0888 9.17571 25.7938 8.34636 25.7951 6.68766C25.7951 5.27506 25.0901 4.56876 23.68 4.56876H22.2787V9.17571H23.68ZM21.0205 10.2681V3.47447H23.68C25.9288 3.47447 27.0533 4.54553 27.0533 6.68766C27.0533 9.07338 25.9288 10.2662 23.68 10.2662L21.0205 10.2681ZM29.7654 5.28071C31.2798 5.28071 32.0369 6.05356 32.0369 7.59926C32.0374 7.80596 32.0229 8.01242 31.9936 8.21703H28.6825C28.6825 8.92019 29.1985 9.27177 30.2307 9.27177C30.7362 9.27048 31.2406 9.22256 31.7374 9.12863V10.1269C31.2083 10.23 30.6698 10.2773 30.1308 10.2681C28.3227 10.2681 27.4186 9.41805 27.4186 7.71791C27.4186 6.09437 28.199 5.28197 29.7598 5.28071H29.7654ZM28.6825 7.35252H30.8108V7.31485C30.8108 6.62299 30.4623 6.27769 29.7654 6.27895C29.1 6.27895 28.739 6.63681 28.6825 7.35252ZM32.6377 10.0402V8.98737C33.2507 9.21855 33.902 9.33104 34.557 9.31886C35.0994 9.31886 35.3706 9.14495 35.3706 8.79714C35.3706 8.46377 35.1823 8.29802 34.8226 8.29802H33.9204C32.9071 8.29802 32.4004 7.79576 32.4004 6.79125C32.4004 5.74781 33.14 5.22546 34.6191 5.22421C35.2221 5.22303 35.8211 5.32233 36.3915 5.51803V6.56335C35.8162 6.33798 35.203 6.22543 34.5852 6.23186C33.9034 6.23186 33.5644 6.40514 33.5644 6.75358C33.5644 7.10202 33.7622 7.2527 34.1577 7.2527H34.9657C36.0732 7.2527 36.6275 7.75119 36.6288 8.74817C36.6288 9.79412 35.9225 10.3165 34.5099 10.3152C33.8743 10.3255 33.2416 10.2294 32.6377 10.0308V10.0402ZM38.4256 3.48389V4.46706H37.1656V3.47447L38.4256 3.48389ZM38.4256 5.29013V10.2681H37.1656V5.28071L38.4256 5.29013ZM42.4638 6.42021C42.1789 6.33403 41.8816 6.29584 41.5842 6.3072C40.714 6.3072 40.2783 6.78685 40.2771 7.74617C40.2771 8.67409 40.6538 9.13805 41.4072 9.13805C41.7758 9.13658 42.1389 9.04885 42.4675 8.88189V6.41079L42.4638 6.42021ZM43.7219 9.89896C43.7219 11.3555 42.843 12.0838 41.0851 12.0838C40.531 12.0919 39.9791 12.0118 39.4502 11.8465V10.8407C39.9846 11.0048 40.5413 11.0842 41.1001 11.0761C42.0067 11.0761 42.46 10.6963 42.46 9.93663C42.0777 10.0964 41.667 10.1772 41.2527 10.174C39.7698 10.174 39.0283 9.36469 39.0283 7.74617C39.0283 6.10379 39.891 5.28197 41.6162 5.28071C42.3206 5.29301 43.0229 5.36166 43.7163 5.48601V9.88955L43.7219 9.89896ZM44.5676 10.2757V5.28071H45.5432L45.6996 6.01338C45.906 5.78464 46.1578 5.60138 46.439 5.47524C46.7201 5.3491 47.0244 5.28286 47.3325 5.28071C48.5154 5.28071 49.1061 5.89472 49.1049 7.12274V10.2681H47.8467V7.12274C47.8467 6.57277 47.573 6.29778 47.0255 6.29778C46.5803 6.31144 46.1549 6.48533 45.8276 6.78748V10.2681L44.5676 10.2757ZM49.3573 5.28825H50.299L51.7304 9.19832L53.1543 5.28071H54.0961L52.0808 10.2681H51.2709L49.3591 5.28071L49.3573 5.28825ZM56.4975 5.28825C57.9164 5.28825 58.6258 5.99015 58.6258 7.39396C58.6254 7.60814 58.611 7.82206 58.5825 8.03434H55.083C55.083 9.05392 55.6788 9.56371 56.8704 9.56371C57.379 9.571 57.8861 9.50761 58.3772 9.37536V10.0798C57.8528 10.216 57.3122 10.2794 56.7706 10.2681C55.0566 10.2681 54.2003 9.41805 54.2015 7.71791C54.2015 6.09437 54.9662 5.28197 56.4956 5.28071L56.4975 5.28825ZM55.083 7.29225H57.782C57.7632 6.4133 57.3356 5.97383 56.4994 5.97383C55.6129 5.97383 55.1408 6.4133 55.083 7.29225ZM60.3567 3.4707V10.2681H59.4771V3.47447L60.3567 3.4707ZM62.0895 7.75182C62.0895 8.95221 62.5886 9.55241 63.5869 9.55241C64.5851 9.55241 65.0836 8.95221 65.0823 7.75182C65.0823 6.57842 64.5832 5.98889 63.5869 5.98889C62.5905 5.98889 62.0895 6.57842 62.0895 7.75182ZM61.2099 7.77065C61.2099 6.10692 62.0022 5.27569 63.5869 5.27694C65.1715 5.2782 65.9632 6.11069 65.9619 7.77442C65.9619 9.43312 65.1702 10.2631 63.5869 10.2644C62.0035 10.2656 61.2118 9.43563 61.2118 7.77442L61.2099 7.77065ZM67.657 9.25294C68.0169 9.42636 68.4121 9.51403 68.8116 9.50909C69.8475 9.50909 70.3654 8.88692 70.3654 7.64258C70.3654 6.55644 69.8506 6.01338 68.821 6.01338C68.43 6.00724 68.0396 6.04515 67.657 6.12639V9.25294ZM66.7793 5.48601C67.4543 5.34847 68.1416 5.27969 68.8304 5.28071C70.4301 5.28071 71.23 6.07114 71.23 7.65199C71.23 9.39608 70.4251 10.2681 68.8154 10.2681C68.4172 10.268 68.0232 10.1872 67.657 10.0308V12.0744H66.7718V5.48224L66.7793 5.48601ZM74.0947 5.28071C75.5148 5.28071 76.2249 5.98262 76.2249 7.38642C76.2236 7.60057 76.2092 7.81443 76.1816 8.0268H72.6727C72.6727 9.04638 73.2685 9.55617 74.4601 9.55617C74.9687 9.56366 75.4758 9.50027 75.9669 9.36783V10.0798C75.4432 10.2161 74.9032 10.2795 74.3622 10.2681C72.6545 10.2681 71.8006 9.41805 71.8006 7.71791C71.8006 6.09437 72.5653 5.28197 74.0947 5.28071ZM72.6727 7.29225H75.3792C75.3604 6.41832 74.9347 5.97383 74.0966 5.97383C73.2101 5.97383 72.7386 6.4133 72.6821 7.29225H72.6727ZM77.0216 10.2681V5.28071H77.6149L77.7694 5.91732C77.9767 5.71136 78.2232 5.54894 78.4942 5.43961C78.7653 5.33029 79.0555 5.27626 79.3477 5.28071V6.01338C79.0743 6.00465 78.8024 6.05673 78.5516 6.16584C78.3008 6.27495 78.0774 6.43839 77.8974 6.64434V10.2681H77.0216Z" fill="white"/>
<path d="M21.0205 16.2761V13.9048H22.0997C22.5832 13.9048 22.8255 14.117 22.8268 14.5414C22.8268 14.8277 22.6384 15.065 22.2617 15.2533L23.0151 16.2798H22.4501L21.7287 15.2458V15.0443C22.1487 14.9727 22.3597 14.8088 22.3597 14.5546C22.3597 14.3794 22.2617 14.2928 22.0639 14.2928H21.4612V16.2761H21.0205ZM24.8458 13.9048V14.2815H23.6574V14.8823H24.7874V15.2759H23.6574V15.8975H24.8741V16.2742H23.226V13.9048H24.8458ZM25.5201 16.2798H25.0681L26.0757 13.9048H26.5485L27.5787 16.2798H27.1041L26.8348 15.6319H26.0456L26.1963 15.2552H26.6747L26.298 14.3625L25.5163 16.2836L25.5201 16.2798ZM28.3076 13.9048V15.8975H29.2494V16.2742H27.8669V13.9048H28.3076ZM30.1064 13.9048V16.2798H29.6675V13.9048H30.1064ZM32.3232 13.9048V14.2815L31.0594 15.8918H32.3232V16.2685H30.5622V15.8918L31.8806 14.2815H30.5961V13.9048H32.3232ZM33.1199 13.9048V16.2798H32.6792V13.9048H33.1199ZM33.6171 16.2798V13.9048H34.0579L35.3104 15.6357V13.9048H35.7342V16.2798H35.2934L34.0409 14.5131V16.2798H33.6171ZM38.1243 16.1706C37.8961 16.2608 37.6519 16.3037 37.4067 16.2968C36.5692 16.2968 36.1498 15.8843 36.1485 15.0593C36.1485 14.2796 36.5748 13.8897 37.4274 13.8897C37.6647 13.8855 37.9009 13.9244 38.1243 14.0046V14.4039C37.9149 14.314 37.6892 14.2684 37.4613 14.2702C36.89 14.2702 36.6049 14.5332 36.6062 15.0593C36.6062 15.6244 36.8736 15.9144 37.4123 15.9144C37.5046 15.9127 37.5964 15.8994 37.6854 15.8749V15.1837H38.1243V16.1706ZM39.7271 13.9104V16.2798H39.2864V13.9048L39.7271 13.9104ZM41.1548 15.9031C41.647 15.9031 41.8931 15.6131 41.8931 15.033C41.8931 14.5395 41.647 14.2928 41.1548 14.2928H40.6651V15.9031H41.1548ZM40.2243 16.2798V13.9048H41.1548C41.9408 13.9048 42.3332 14.2815 42.3319 15.0349C42.3319 15.8711 41.9395 16.2886 41.1548 16.2874L40.2243 16.2798ZM44.3322 13.9048V14.2815H43.1437V14.8823H44.2738V15.2759H43.1437V15.8975H44.3604V16.2742H42.7124V13.9048H44.3322ZM45.0065 16.2798H44.5544L45.5621 13.9048H46.0348L47.0651 16.2798H46.5905L46.3211 15.6319H45.5319L45.6826 15.2552H46.161L45.7843 14.3625L45.0027 16.2836L45.0065 16.2798ZM47.3156 16.18V15.7826C47.5745 15.8734 47.8474 15.9181 48.1217 15.9144C48.4871 15.9144 48.6679 15.7939 48.6679 15.549C48.6679 15.372 48.5568 15.2835 48.3327 15.2835H47.956C47.47 15.2835 47.2271 15.0631 47.2271 14.6186C47.2271 14.1327 47.5717 13.8897 48.2649 13.8897C48.5205 13.8883 48.7747 13.927 49.0182 14.0046V14.4039C48.7771 14.3147 48.522 14.2694 48.2649 14.2702C47.8656 14.2702 47.6659 14.387 47.6659 14.6186C47.6659 14.7975 47.762 14.8861 47.956 14.8861H48.3327C48.8487 14.8861 49.1087 15.1064 49.1087 15.549C49.1087 16.0513 48.7797 16.3024 48.1217 16.3024C47.8485 16.3061 47.5765 16.2666 47.3156 16.1857V16.18Z" fill="#FCBF10"/>
<path d="M17.4629 10.4505C17.2858 10.9025 16.8827 11.2717 16.4891 11.6296C15.6865 12.365 14.8433 13.0548 13.9634 13.6957C11.0591 15.8045 7.79614 17.3687 4.3332 18.3121C3.71731 18.4797 3.00348 18.6097 2.48929 18.233C2.08623 17.9373 1.92425 17.4174 1.81313 16.9334C1.31589 14.8993 1.12378 12.7898 0.99005 10.718C0.955349 10.5136 0.985651 10.3034 1.07669 10.1171C1.17493 9.98616 1.30445 9.88191 1.45338 9.8139C2.69459 9.12832 4.00171 8.49548 5.12238 7.62343C5.45952 7.35975 5.82114 7.01884 5.80042 6.5913C5.78536 6.27864 5.56876 6.02626 5.36158 5.78706C4.45563 4.77375 3.03361 3.49111 2.03726 2.56633C4.06379 3.5573 5.9176 4.86801 7.52756 6.44815C7.74416 6.6704 7.96641 6.91902 7.99843 7.22791C8.04175 7.65169 7.71214 8.01519 7.3976 8.30336C6.8968 8.76425 6.36914 9.19506 5.81738 9.59354C5.70132 9.66189 5.60572 9.7601 5.54051 9.87794C5.49688 9.9945 5.48391 10.1203 5.50284 10.2433C5.56939 10.9791 5.66481 11.7112 5.78912 12.4395C7.12787 11.654 8.40253 10.7641 9.60126 9.77812C10.1663 9.32609 10.7803 8.75351 10.7539 8.02838C10.7332 7.50478 10.3772 7.06028 10.0307 6.66852C7.84006 4.20407 5.25295 2.12305 2.37628 0.511475C7.78939 1.7108 12.7457 4.43566 16.6586 8.36364C16.9861 8.65615 17.2513 9.01167 17.4384 9.40896C17.5114 9.57224 17.5512 9.74844 17.5554 9.92727C17.5596 10.1061 17.5282 10.284 17.4629 10.4505Z" fill="#FCBF10"/>
</g>
<defs>
<clipPath id="clip0_3984_12785">
<rect width="78.3654" height="17.9645" fill="white" transform="translate(0.982178 0.511963)"/>
</clipPath>
</defs>
</svg>
