<svg width="68" height="16" viewBox="0 0 68 16" fill="none" xmlns="http://www.w3.org/2000/svg">
<g clip-path="url(#clip0_4029_26828)">
<path d="M19.6784 7.93417C20.8944 7.93417 21.503 7.2183 21.5041 5.78655C21.5041 4.56724 20.8955 3.95758 19.6784 3.95758H18.4688V7.93417H19.6784ZM17.3828 8.87711V3.01302H19.6784C21.6195 3.01302 22.5901 3.93753 22.5901 5.78655C22.5901 7.84584 21.6195 8.87548 19.6784 8.87548L17.3828 8.87711ZM24.9312 4.57211C26.2383 4.57211 26.8919 5.23921 26.8919 6.57342C26.8923 6.75183 26.8798 6.93005 26.8545 7.10666H23.9964C23.9964 7.71361 24.4418 8.01708 25.3328 8.01708C25.7692 8.01597 26.2045 7.97461 26.6334 7.89353V8.75517C26.1766 8.84419 25.7118 8.88506 25.2466 8.87711C23.6859 8.87711 22.9055 8.14335 22.9055 6.67584C22.9055 5.27444 23.5791 4.5732 24.9263 4.57211H24.9312ZM23.9964 6.36044H25.8335V6.32793C25.8335 5.73073 25.5327 5.43268 24.9312 5.43376C24.3568 5.43376 24.0452 5.74266 23.9964 6.36044ZM27.4105 8.68039V7.7716C27.9396 7.97114 28.5018 8.06824 29.0671 8.05773C29.5353 8.05773 29.7694 7.90762 29.7694 7.60739C29.7694 7.31964 29.6069 7.17657 29.2963 7.17657H28.5176C27.643 7.17657 27.2056 6.74304 27.2056 5.87597C27.2056 4.9753 27.844 4.52443 29.1208 4.52334C29.6413 4.52232 30.1583 4.60803 30.6506 4.77696V5.67925C30.1541 5.48472 29.6247 5.38757 29.0915 5.39312C28.503 5.39312 28.2103 5.54269 28.2103 5.84345C28.2103 6.14422 28.381 6.27428 28.7225 6.27428H29.4199C30.3758 6.27428 30.8544 6.70456 30.8554 7.56512C30.8554 8.46796 30.2458 8.91883 29.0265 8.91775C28.4779 8.92664 27.9317 8.84366 27.4105 8.67226V8.68039ZM32.4064 3.02115V3.86979H31.3188V3.01302L32.4064 3.02115ZM32.4064 4.58024V8.87711H31.3188V4.57211L32.4064 4.58024ZM35.892 5.55569C35.6461 5.48131 35.3895 5.44834 35.1328 5.45815C34.3817 5.45815 34.0056 5.87217 34.0045 6.70022C34.0045 7.50118 34.3297 7.90165 34.98 7.90165C35.2982 7.90039 35.6116 7.82467 35.8953 7.68055V5.54756L35.892 5.55569ZM36.978 8.55846C36.978 9.81571 36.2194 10.4443 34.702 10.4443C34.2237 10.4513 33.7474 10.3822 33.2908 10.2395V9.37134C33.752 9.51296 34.2326 9.58153 34.715 9.57455C35.4975 9.57455 35.8888 9.24669 35.8888 8.59097C35.5588 8.72892 35.2043 8.7986 34.8467 8.79582C33.5667 8.79582 32.9267 8.09729 32.9267 6.70022C32.9267 5.28257 33.6713 4.5732 35.1604 4.57211C35.7684 4.58273 36.3746 4.64199 36.9732 4.74932V8.55033L36.978 8.55846ZM37.708 8.88361V4.57211H38.5501L38.6851 5.20453C38.8633 5.00709 39.0806 4.8489 39.3233 4.74003C39.566 4.63115 39.8286 4.57397 40.0946 4.57211C41.1156 4.57211 41.6255 5.10211 41.6244 6.1621V8.87711H40.5384V6.1621C40.5384 5.68738 40.3022 5.45002 39.8296 5.45002C39.4453 5.46181 39.0781 5.6119 38.7956 5.87272V8.87711L37.708 8.88361ZM41.8423 4.57862H42.6552L43.8908 7.95368L45.1198 4.57211H45.9327L44.1931 8.87711H43.4941L41.8439 4.57211L41.8423 4.57862ZM48.0055 4.57862C49.2303 4.57862 49.8426 5.18448 49.8426 6.39621C49.8423 6.58108 49.8298 6.76573 49.8052 6.94896H46.7846C46.7846 7.82904 47.2989 8.26907 48.3274 8.26907C48.7664 8.27537 49.2041 8.22065 49.628 8.1065V8.71453C49.1754 8.8321 48.7088 8.88681 48.2413 8.87711C46.7618 8.87711 46.0227 8.14335 46.0237 6.67584C46.0237 5.27444 46.6838 4.5732 48.0039 4.57211L48.0055 4.57862ZM46.7846 6.30842H49.1143C49.098 5.54973 48.729 5.17039 48.0072 5.17039C47.242 5.17039 46.8344 5.54973 46.7846 6.30842ZM51.3367 3.00977V8.87711H50.5775V3.01302L51.3367 3.00977ZM52.8324 6.7051C52.8324 7.74125 53.2632 8.25932 54.1249 8.25932C54.9865 8.25932 55.4168 7.74125 55.4157 6.7051C55.4157 5.69226 54.9849 5.1834 54.1249 5.1834C53.2649 5.1834 52.8324 5.69226 52.8324 6.7051ZM52.0732 6.72136C52.0732 5.28528 52.7571 4.56778 54.1249 4.56886C55.4927 4.56995 56.176 5.28853 56.175 6.72461C56.175 8.15636 55.4916 8.87277 54.1249 8.87385C52.7582 8.87494 52.0748 8.15852 52.0748 6.72461L52.0732 6.72136ZM57.6381 8.00083C57.9488 8.15052 58.2899 8.2262 58.6347 8.22193C59.5289 8.22193 59.976 7.68489 59.976 6.61081C59.976 5.67329 59.5316 5.20453 58.6428 5.20453C58.3053 5.19923 57.9683 5.23196 57.6381 5.30208V8.00083ZM56.8805 4.74932C57.4632 4.6306 58.0564 4.57123 58.651 4.57211C60.0318 4.57211 60.7222 5.25439 60.7222 6.61894C60.7222 8.12438 60.0275 8.87711 58.638 8.87711C58.2943 8.87697 57.9542 8.80729 57.6381 8.67226V10.4362H56.874V4.74607L56.8805 4.74932ZM63.195 4.57211C64.4208 4.57211 65.0337 5.17798 65.0337 6.38971C65.0326 6.57455 65.0201 6.75915 64.9963 6.94246H61.9675C61.9675 7.82254 62.4818 8.26257 63.5104 8.26257C63.9493 8.26903 64.3871 8.21431 64.811 8.1V8.71453C64.3589 8.8322 63.8928 8.88691 63.4258 8.87711C61.9518 8.87711 61.2148 8.14335 61.2148 6.67584C61.2148 5.27444 61.8748 4.5732 63.195 4.57211ZM61.9675 6.30842H64.3037C64.2875 5.55407 63.9201 5.17039 63.1966 5.17039C62.4314 5.17039 62.0244 5.54973 61.9756 6.30842H61.9675ZM65.7214 8.87711V4.57211H66.2335L66.3668 5.12162C66.5458 4.94384 66.7585 4.80364 66.9925 4.70927C67.2265 4.6149 67.4769 4.56827 67.7292 4.57211V5.20453C67.4932 5.197 67.2585 5.24195 67.0421 5.33613C66.8256 5.43032 66.6327 5.57139 66.4774 5.74916V8.87711H65.7214Z" fill="#191E26"/>
<path d="M17.3828 14.063V12.0162H18.3144C18.7316 12.0162 18.9408 12.1994 18.9419 12.5657C18.9419 12.8128 18.7793 13.0177 18.4542 13.1802L19.1045 14.0663H18.6168L17.9941 13.1737V12.9998C18.3566 12.938 18.5387 12.7966 18.5387 12.5771C18.5387 12.4259 18.4542 12.3511 18.2835 12.3511H17.7632V14.063H17.3828ZM20.6847 12.0162V12.3414H19.6589V12.86H20.6343V13.1998H19.6589V13.7363H20.7091V14.0614H19.2866V12.0162H20.6847ZM21.2667 14.0663H20.8766L21.7463 12.0162H22.1544L23.0437 14.0663H22.634L22.4015 13.507H21.7203L21.8504 13.1819H22.2633L21.9382 12.4113L21.2635 14.0695L21.2667 14.0663ZM23.6729 12.0162V13.7363H24.4857V14.0614H23.2924V12.0162H23.6729ZM25.2255 12.0162V14.0663H24.8467V12.0162H25.2255ZM27.139 12.0162V12.3414L26.0481 13.7314H27.139V14.0565H25.6189V13.7314L26.7569 12.3414H25.6482V12.0162H27.139ZM27.8267 12.0162V14.0663H27.4462V12.0162H27.8267ZM28.2559 14.0663V12.0162H28.6363L29.7174 13.5103V12.0162H30.0832V14.0663H29.7028L28.6217 12.5413V14.0663H28.2559ZM32.1463 13.972C31.9493 14.0498 31.7386 14.0869 31.5269 14.0809C30.804 14.0809 30.442 13.7249 30.4409 13.0128C30.4409 12.3397 30.8088 12.0032 31.5448 12.0032C31.7496 11.9995 31.9535 12.0331 32.1463 12.1024V12.447C31.9656 12.3694 31.7707 12.3301 31.574 12.3316C31.0809 12.3316 30.8349 12.5587 30.8359 13.0128C30.8359 13.5005 31.0668 13.7509 31.5318 13.7509C31.6115 13.7494 31.6906 13.7379 31.7675 13.7167V13.1201H32.1463V13.972ZM33.5298 12.0211V14.0663H33.1494V12.0162L33.5298 12.0211ZM34.7621 13.7411C35.187 13.7411 35.3994 13.4908 35.3994 12.99C35.3994 12.5641 35.187 12.3511 34.7621 12.3511H34.3394V13.7411H34.7621ZM33.959 14.0663V12.0162H34.7621C35.4406 12.0162 35.7793 12.3414 35.7782 12.9917C35.7782 13.7135 35.4395 14.0739 34.7621 14.0728L33.959 14.0663ZM37.5048 12.0162V12.3414H36.4789V12.86H37.4544V13.1998H36.4789V13.7363H37.5292V14.0614H36.1066V12.0162H37.5048ZM38.0868 14.0663H37.6966L38.5664 12.0162H38.9745L39.8638 14.0663H39.4541L39.2216 13.507H38.5404L38.6705 13.1819H39.0834L38.7582 12.4113L38.0836 14.0695L38.0868 14.0663ZM40.08 13.9801V13.6371C40.3035 13.7155 40.539 13.754 40.7758 13.7509C41.0912 13.7509 41.2473 13.6468 41.2473 13.4355C41.2473 13.2827 41.1514 13.2063 40.9579 13.2063H40.6327C40.2133 13.2063 40.0036 13.016 40.0036 12.6324C40.0036 12.2129 40.3011 12.0032 40.8994 12.0032C41.12 12.002 41.3394 12.0354 41.5497 12.1024V12.447C41.3415 12.3701 41.1213 12.331 40.8994 12.3316C40.5547 12.3316 40.3824 12.4324 40.3824 12.6324C40.3824 12.7868 40.4653 12.8632 40.6327 12.8632H40.9579C41.4033 12.8632 41.6277 13.0534 41.6277 13.4355C41.6277 13.869 41.3437 14.0858 40.7758 14.0858C40.54 14.0889 40.3052 14.0549 40.08 13.985V13.9801Z" fill="#FCBF10"/>
<path d="M14.312 9.03466C14.1592 9.42484 13.8112 9.74349 13.4715 10.0524C12.7787 10.6872 12.0508 11.2826 11.2913 11.8358C8.78442 13.6561 5.96794 15.0062 2.97883 15.8206C2.44721 15.9652 1.83105 16.0774 1.38722 15.7523C1.03931 15.497 0.899493 15.0483 0.803573 14.6305C0.374374 12.8747 0.208547 11.0538 0.0931182 9.26552C0.063165 9.08908 0.0893215 8.90769 0.167903 8.7469C0.252705 8.63385 0.364496 8.54386 0.493054 8.48516C1.56443 7.89338 2.6927 7.34713 3.66003 6.59441C3.95104 6.3668 4.26318 6.07254 4.2453 5.7035C4.23229 5.43362 4.04533 5.21577 3.8665 5.0093C3.08451 4.13464 1.85706 3.02751 0.997038 2.22926C2.74628 3.08464 4.34644 4.216 5.73612 5.57994C5.92308 5.77178 6.11492 5.98638 6.14255 6.253C6.17995 6.61879 5.89544 6.93256 5.62394 7.1813C5.19166 7.57913 4.73619 7.95099 4.25993 8.29495C4.15976 8.35394 4.07723 8.43871 4.02094 8.54043C3.98329 8.64105 3.97209 8.74965 3.98843 8.85583C4.04587 9.49096 4.12824 10.1228 4.23554 10.7515C5.39111 10.0735 6.49136 9.30536 7.52607 8.45427C8.0138 8.06409 8.54379 7.56986 8.52103 6.94394C8.50315 6.49199 8.19588 6.10831 7.89674 5.77015C6.00585 3.64291 3.77273 1.84664 1.28967 0.455566C5.96212 1.49079 10.2402 3.84282 13.6178 7.23333C13.9005 7.48582 14.1294 7.79269 14.2908 8.13562C14.3539 8.27656 14.3882 8.42865 14.3919 8.58302C14.3955 8.73738 14.3683 8.89091 14.312 9.03466Z" fill="#FCBF10"/>
</g>
<defs>
<clipPath id="clip0_4029_26828">
<rect width="67.6428" height="15.5064" fill="white" transform="translate(0.0864258 0.456299)"/>
</clipPath>
</defs>
</svg>
