<svg width="18" height="18" viewBox="0 0 18 18" fill="none" xmlns="http://www.w3.org/2000/svg">
<path fill-rule="evenodd" clip-rule="evenodd" d="M4.55407 0.530729C5.39998 0.180342 6.30662 0 7.22222 0C8.13783 0 9.04447 0.180342 9.89038 0.530729C10.7363 0.881116 11.5049 1.39469 12.1523 2.04212C12.7998 2.68955 13.3133 3.45816 13.6637 4.30407C14.0141 5.14998 14.1944 6.05662 14.1944 6.97222C14.1944 7.88783 14.0141 8.79447 13.6637 9.64038C13.4094 10.2544 13.0691 10.8276 12.6541 11.3434L17.5303 16.2197C17.8232 16.5126 17.8232 16.9874 17.5303 17.2803C17.2374 17.5732 16.7626 17.5732 16.4697 17.2803L11.5934 12.4041C11.0776 12.8191 10.5044 13.1594 9.89038 13.4137C9.04447 13.7641 8.13783 13.9444 7.22222 13.9444C6.30662 13.9444 5.39998 13.7641 4.55407 13.4137C3.70816 13.0633 2.93955 12.5498 2.29212 11.9023C1.64469 11.2549 1.13112 10.4863 0.780729 9.64038C0.430342 8.79447 0.25 7.88783 0.25 6.97222C0.25 6.05662 0.430342 5.14998 0.780729 4.30407C1.13112 3.45816 1.64469 2.68955 2.29212 2.04212C2.93955 1.39469 3.70816 0.881116 4.55407 0.530729ZM7.22222 1.5C6.5036 1.5 5.79201 1.64154 5.12809 1.91655C4.46417 2.19155 3.86092 2.59463 3.35278 3.10278C2.84463 3.61092 2.44155 4.21417 2.16655 4.87809C1.89154 5.54201 1.75 6.2536 1.75 6.97222C1.75 7.69084 1.89154 8.40243 2.16655 9.06635C2.44155 9.73027 2.84463 10.3335 3.35278 10.8417C3.86092 11.3498 4.46417 11.7529 5.12809 12.0279C5.79201 12.3029 6.5036 12.4444 7.22222 12.4444C7.94085 12.4444 8.65243 12.3029 9.31635 12.0279C9.98027 11.7529 10.5835 11.3498 11.0917 10.8417C11.5998 10.3335 12.0029 9.73027 12.2779 9.06635C12.5529 8.40243 12.6944 7.69085 12.6944 6.97222C12.6944 6.2536 12.5529 5.54201 12.2779 4.87809C12.0029 4.21417 11.5998 3.61092 11.0917 3.10278C10.5835 2.59463 9.98027 2.19155 9.31635 1.91655C8.65243 1.64154 7.94085 1.5 7.22222 1.5Z" fill="#191E26"/>
</svg>
