<svg width="48" height="48" viewBox="0 0 48 48" fill="none" xmlns="http://www.w3.org/2000/svg">
<g clip-path="url(#clip0_4668_4674)">
<path fill-rule="evenodd" clip-rule="evenodd" d="M19.5541 15.7807C20.4 15.4303 21.3066 15.25 22.2222 15.25C23.1378 15.25 24.0445 15.4303 24.8904 15.7807C25.7363 16.1311 26.5049 16.6447 27.1523 17.2921C27.7998 17.9395 28.3133 18.7082 28.6637 19.5541C29.0141 20.4 29.1944 21.3066 29.1944 22.2222C29.1944 23.1378 29.0141 24.0445 28.6637 24.8904C28.4094 25.5044 28.0691 26.0776 27.6541 26.5934L32.5303 31.4697C32.8232 31.7626 32.8232 32.2374 32.5303 32.5303C32.2374 32.8232 31.7626 32.8232 31.4697 32.5303L26.5934 27.6541C26.0776 28.0691 25.5044 28.4094 24.8904 28.6637C24.0445 29.0141 23.1378 29.1944 22.2222 29.1944C21.3066 29.1944 20.4 29.0141 19.5541 28.6637C18.7082 28.3133 17.9395 27.7998 17.2921 27.1523C16.6447 26.5049 16.1311 25.7363 15.7807 24.8904C15.4303 24.0445 15.25 23.1378 15.25 22.2222C15.25 21.3066 15.4303 20.4 15.7807 19.5541C16.1311 18.7082 16.6447 17.9395 17.2921 17.2921C17.9395 16.6447 18.7082 16.1311 19.5541 15.7807ZM22.2222 16.75C21.5036 16.75 20.792 16.8915 20.1281 17.1665C19.4642 17.4416 18.8609 17.8446 18.3528 18.3528C17.8446 18.8609 17.4416 19.4642 17.1665 20.1281C16.8915 20.792 16.75 21.5036 16.75 22.2222C16.75 22.9408 16.8915 23.6524 17.1665 24.3164C17.4416 24.9803 17.8446 25.5835 18.3528 26.0917C18.8609 26.5998 19.4642 27.0029 20.1281 27.2779C20.792 27.5529 21.5036 27.6944 22.2222 27.6944C22.9408 27.6944 23.6524 27.5529 24.3164 27.2779C24.9803 27.0029 25.5835 26.5998 26.0917 26.0917C26.5998 25.5835 27.0029 24.9803 27.2779 24.3164C27.5529 23.6524 27.6944 22.9408 27.6944 22.2222C27.6944 21.5036 27.5529 20.792 27.2779 20.1281C27.0029 19.4642 26.5998 18.8609 26.0917 18.3528C25.5835 17.8446 24.9803 17.4416 24.3164 17.1665C23.6524 16.8915 22.9408 16.75 22.2222 16.75Z" fill="#191E26"/>
</g>
<defs>
<clipPath id="clip0_4668_4674">
<rect x="4" y="4" width="40" height="40" rx="20" fill="white"/>
</clipPath>
</defs>
</svg>
